/* XPM */
static char *_a8ef5a5c54d440993f1df6627762143pNHWASYl3zjNCkdZ[] = {
/* columns rows colors chars-per-pixel */
"50 45 231 2 ",
"   c None",
".  c #203B66",
"X  c #394679",
"o  c #394668",
"O  c #4E5B75",
"+  c #434A69",
"@  c #555A8C",
"#  c #4D5E90",
"$  c #5C5F98",
"%  c #42658F",
"&  c #546B87",
"*  c #5D6B91",
"=  c #636E8A",
"-  c #656B9D",
";  c #6C709C",
":  c #6B7795",
">  c #757F9D",
",  c #627286",
"<  c #696DA4",
"1  c #6471A4",
"2  c #6C78A9",
"3  c #727CAA",
"4  c #7477A6",
"5  c #757FB2",
"6  c #6F819F",
"7  c #498AAE",
"8  c #5F88AD",
"9  c #4B97B5",
"0  c #589AB9",
"q  c #6981AE",
"w  c #7485AB",
"e  c #6D85B6",
"r  c #7A88B7",
"t  c #6B9BBA",
"y  c #7597BB",
"u  c #7791AB",
"i  c #5A9FC5",
"p  c #7C9DCD",
"a  c #7A9AC4",
"s  c #759BD8",
"d  c #5EACD1",
"f  c #57A8C9",
"g  c #6AAACA",
"h  c #7EA7C9",
"j  c #69B0CF",
"k  c #7DB3CE",
"l  c #6DACD1",
"z  c #7EACD0",
"x  c #64B4D8",
"c  c #7CB4D5",
"v  c #78B7D9",
"b  c #7CBEE1",
"n  c #7BC6E6",
"m  c #9E8596",
"M  c #8386AE",
"N  c #8594AA",
"B  c #8484B3",
"V  c #818BB5",
"C  c #828DBB",
"Z  c #8A88BB",
"A  c #8D9ABC",
"S  c #8995B8",
"D  c #9191B5",
"F  c #9088A4",
"G  c #A994A6",
"H  c #97A5B7",
"J  c #89A4B7",
"K  c #A4A7B8",
"L  c #898CC5",
"P  c #8A95C4",
"I  c #849DCD",
"U  c #899BC7",
"Y  c #949DC5",
"T  c #979FCB",
"R  c #839DD0",
"E  c #889FD1",
"W  c #9C9ED6",
"Q  c #8BA4C4",
"!  c #8BA4CD",
"~  c #87A6C7",
"^  c #9CA6C5",
"/  c #96A9C8",
"(  c #9CB4CB",
")  c #9AB9C9",
"_  c #8BA4D2",
"`  c #8FABD6",
"'  c #86ACD5",
"]  c #93A5D2",
"[  c #9BA5D4",
"{  c #93AAD5",
"}  c #9BACD4",
"|  c #94ADD9",
" . c #9AADDA",
".. c #82B2D3",
"X. c #8FB5DB",
"o. c #8CBBDA",
"O. c #87B7D9",
"+. c #94B0D5",
"@. c #9CB1D6",
"#. c #9CBCD3",
"$. c #9BB2DA",
"%. c #94BDDC",
"&. c #9ABDDF",
"*. c #96B1DA",
"=. c #8BB7CD",
"-. c #A4A6C9",
";. c #A6B7CC",
":. c #B3BACA",
">. c #A2ACD3",
",. c #A2ADDA",
"<. c #A2B3D5",
"1. c #A6BED4",
"2. c #A1B6DC",
"3. c #AAB5DB",
"4. c #A4BADD",
"5. c #ABBDDB",
"6. c #ABB3D4",
"7. c #B2B7D7",
"8. c #9BBCE2",
"9. c #97B9E4",
"0. c #8DB6E2",
"q. c #A4B6E0",
"w. c #ABB4E1",
"e. c #A6BAE3",
"r. c #ABBDE2",
"t. c #BBBFE3",
"y. c #9AC4DE",
"u. c #AEC6CF",
"i. c #B8C4CC",
"p. c #A4C3DC",
"a. c #ACC9DB",
"s. c #AAC5DA",
"d. c #B2C2DC",
"f. c #B5C9DC",
"g. c #BACBDD",
"h. c #BAC5D4",
"j. c #ADD0DD",
"k. c #B0D0DD",
"l. c #83C6E5",
"z. c #8CC3E4",
"x. c #89CBE7",
"c. c #9EC3E2",
"v. c #94CDE8",
"b. c #96C8E6",
"n. c #9DD7ED",
"m. c #9BD8EE",
"M. c #ACC3E3",
"N. c #ABCCE3",
"B. c #ABC3E9",
"V. c #AECBEA",
"C. c #A3C6E6",
"Z. c #B2C4E4",
"A. c #BBC5E5",
"S. c #B5CBE4",
"D. c #BCCCE5",
"F. c #BCCCEA",
"G. c #B8C6E9",
"H. c #ADD4E7",
"J. c #A3D4EA",
"K. c #ABD5EC",
"L. c #AAD9EA",
"P. c #A8D9E8",
"I. c #B3D3E5",
"U. c #BBD3E4",
"Y. c #B4D3EA",
"T. c #BCD2EB",
"R. c #B3DAEC",
"E. c #BCDBEC",
"W. c #BAD8E4",
"Q. c #BBCEF0",
"!. c #AED5F1",
"~. c #B5D1F3",
"^. c #BCD5F2",
"/. c #BBDEF4",
"(. c #BDDCF9",
"). c #B9E1EE",
"_. c #BDE5F5",
"`. c #D1DADE",
"'. c #E0C9DF",
"]. c #C2CEE3",
"[. c #C1CEEB",
"{. c #C0C6E6",
"}. c #DFCFE5",
"|. c #C3D3EB",
" X c #CAD6ED",
".X c #C3DCEB",
"XX c #CCDCED",
"oX c #C5D7E6",
"OX c #D0DEEE",
"+X c #D4D8E5",
"@X c #C4D6F3",
"#X c #C5DEF3",
"$X c #CBDCF2",
"%X c #D2DEF1",
"&X c #D9DDF0",
"*X c #EADDEA",
"=X c #C4E2EF",
"-X c #CDE3EE",
";X c #D6E2EC",
":X c #DBE5EE",
">X c #C4E2F3",
",X c #CCE5F3",
"<X c #CCEBF6",
"1X c #CCE9FC",
"2X c #D4E3F3",
"3X c #DBE5F3",
"4X c #D4EAF4",
"5X c #DCEBF5",
"6X c #D4EBFB",
"7X c #DCEDF9",
"8X c #DDF1FB",
"9X c #DBF5FC",
"0X c #E3ECF4",
"qX c #EBECF6",
"wX c #E4EDF8",
"eX c #E7E6F1",
"rX c #E6F0F7",
"tX c #ECF2F5",
"yX c #E4F3FB",
"uX c #ECF5FB",
"iX c #EEFBFE",
"pX c #F3F6F6",
"aX c #F7F9F6",
"sX c #F2F6FB",
"dX c #F5FBFD",
"fX c #FAFDFF",
"gX c #FFFFFF",
"hX c #FCFEFF",
"jX c #FAFDFF",
"kX c #F8F0F6",
"lX c #E4EAED",
/* pixels */
"                                                                                                    ",
"                                                                                                    ",
"                                        aX                                                          ",
"                                      dXhXdX                                                        ",
"                                    jXhXaXfXuX                                                      ",
"                                  hXhXlXrX8XiX9X                                                    ",
"                                jXhXE.P.4X4X.X9X4X                                                  ",
"                              hXhXR.P.P.<X5XoXg.9X,X                                                ",
"                            hXhXJ.L.L.m.J.L.,X.Xa.W.2XW.oX                                          ",
"                          jXhXJ.n L.m.m.m.l.K.>XI.u.i.+X5XyX0X                                      ",
"                        hXhXJ.x.v.n m.J.v.0.s R ' 0.V._.=X3XfX5X                                    ",
"                      hXhXJ.l.v.v.v.l.!.e.s e. X|.*.s K.<X5XtXhX                                    ",
"                    jXhXK.l.x.x.x.z.0.2XF.r.$X2XwX5XF.e.!.<XtXfXqX                                  ",
"                  hXjXB.V.V.b.z.z.b 8.$XF.2X|.r.%X2XB.9.V._.7X0X0X                                  ",
"                hXfX4.Z.D.S.M.c.8.O.B.F.$X&X$X$X|.8.Q.@XB.!._.,XuX                                  ",
"                jXfXM.V.d.5.4.4.| G.Z.D.%X X X$X[.@X$XwX$XB.v.).3XoX                                ",
"                  dX9X4.5.$.r. .| %XF.2. XF.r.G.$X7X@X%XeXG.C.K.h.|.I.                              ",
"                    5X,X` 2.2.{ M.3X|.{ F.F.B.Q.%X3X@X%X%Xr.b.c.^ :.{.U.].].T..X                    ",
"                  2XW.W.>X| I _ |.3XM.q.V.r.~.@X3X$XQ.Z.r.{ y ~ #.y ~ / ^ -.D.4X9X8X                ",
"                  -X=.t j.>X*./ @XM.2.M.$.2.@X@X2X@X$Xr.T 1 r O.y h ..%.y.S.f.&.Y.fXyX              ",
"                5X.X9 h 9 =.k.I.2._ $.4.2.M.oX%X XOX X[ P 2 r O...9...%.c.8.I.-XS.,XdX              ",
"      3XXXE.N.U.rXk 9 9 0 0 8 ~ S.oX5.{ S.M.|.&XA.[.>.C r r h c ~ H K f._.E.C.T.5X5XgXfX            ",
"    0XfX=XR.y.rXXXf g 0 7 t ( 2 ( f.-XoXd.M.M.w.t.>.P V 5 h z z N m G :.>X,XyX-XrXdXtXgX            ",
"    0X0X).p.h.uXo.j g g 0 y ;.( f.A ( 4X[.w.r. .6.^ V w a ..X.9.y.p.S.>X>X4XyXyXdXfXaXlXhX          ",
"    0X=Xp.p.iX>Xx v j g 0 t <.d.g.f.^ / 7Xt.r.] T D V 3 - q ~ X.J.K.).,X7XyX7XuXjXdXpXpX0XjX        ",
"    4Xy.g U.rXc.c.o...z a _ @.g.f.( Q w k. X[ P 5 S r 2 - w 5 C C.).#X2XyX,X5XfXfXdX:X0XtX0XjXuX    ",
"    2Xz...tXT.4.5.4.$.| _ D.} 5.f.U y y N ;X[ C < C w 4 V P P >.4.>X4XrX4X^.fXfXdXfXtX:XtXrX;XrXiX  ",
"    4Xc XX0X` r.5.@.$.{ ` XXD.! 4.@.h Q w #.r.2 1 < - 2 C T >.7.S.XXuXyX^.2XhXfXdXdXdXdX0XXX;X0XhX  ",
"    6Xj ;XtXT.+.@.} 2.} } OXT.{ <.~ +.' Q u Y.Y M 4 < $ < L [ g.{.%XdXyXqXhXdXfXdXdXsXrXuX:X;XjXuX  ",
"    yXd i ) XX,XC.{ } I } 2XD.@.+.I ! D.>.Y Q s.A.7.4 M B L L 7.t.3XuXdXhXdXfXdXsXdXuXuXtX0XfXuX    ",
"  sXyXx v i 7 Q oXE.C.p $.[._ @.{ | _ $.{ 3.H w N ;.4.|.7.T W W w.yXsXhXfXfXdXdXdXuXuXuXrXtXuX      ",
"  sX6Xx v v j h } 1..XY.f.5.@.] I { _ 2.q. .>.D : O , J G.7X[.,.w.5XfXdXfXfXdXdXuXuX5X3XrXjX        ",
"  sX1Xx v O.X.$.%X[.2.5.<.y.f.g.I.G.<.q.e.w.T C A 6 = + O i.rX$X4XdXaXdXfXdXdXsXuXuXT.oXhXuX        ",
"  sX(.b 8.&.9.{ %XuXF.M.d.e q S H p..X2XA.2.,.S D 4 : > = o i.iXdXfXaXaXaXdXsXuXrXXXD.iXuX          ",
"  uX^.8.r.$.q.$.F.wX2Xr.Z.{ ! y 2 X & :.-X2X3.6.-.B - - : : . oXhX*XdXdXpXpXuXuXuXXXwXiX            ",
"  uXB.q.2.$.e.$. .5X2X4.a.| $.] E I 3 # & -.-X0X}.D 4 ; * @ X , pXkX*XdXpXtXtX3XOXrXfX              ",
"  wX$. .| {  ._ R |.Z. .$.{ } ] ]  .U T 4 F H ;.+Xd.7.D M 1 @ % ;.hXkX*XuXuX0X|.2XfXrX              ",
"  dX^.~.^.~.(._.(.#X#X#X%X$X#X$X#X%X$X#X$X5XOX:.s.W.E.T.>Xp.{ a.d.i.fXeX'.qX7X3XuXhX                ",
"  uXuX4X1X6X<X                                            E.H.=XuX%X+XuXqX}.0XuXuXrX                ",
"                                                                  iXdXuX0XuXwXuXdXrX                ",
"                                                                      dX2XiXdXrXdX                  ",
"                                                                          0XiXjXiX                  ",
"                                                                              sXsX                  ",
"                                                                                                    ",
"                                                                                                    "
};
