/* XPM */
static char *_7799eea6e74416ec17c069db4800ff8tk4vW1I7UFfCorHz[] = {
/* columns rows colors chars-per-pixel */
"50 100 182 2 ",
"   c None",
".  c #000001",
"X  c #0D0F0D",
"o  c #151817",
"O  c #181D1C",
"+  c #251509",
"@  c #1B201E",
"#  c #2F2218",
"$  c #36271D",
"%  c #1F2322",
"&  c #252929",
"*  c #372B23",
"=  c #2C302F",
"-  c #3C332C",
";  c #34362F",
":  c #383935",
">  c #740000",
",  c #502500",
"<  c #462D1F",
"1  c #4C341E",
"2  c #56321C",
"3  c #613514",
"4  c #47362C",
"5  c #533422",
"6  c #593927",
"7  c #533729",
"8  c #543B2D",
"9  c #5C3D2C",
"0  c #573826",
"q  c #453A32",
"w  c #4A3C34",
"e  c #553E31",
"r  c #5B3F30",
"t  c #603E2B",
"y  c #673F27",
"u  c #3E423F",
"i  c #77431C",
"p  c #5F402F",
"a  c #42423D",
"s  c #4A423C",
"d  c #5D4132",
"f  c #5C463A",
"g  c #5D493D",
"h  c #544136",
"j  c #61412F",
"k  c #634534",
"l  c #684935",
"z  c #664939",
"x  c #6B4D3C",
"c  c #674836",
"v  c #704F3D",
"b  c #6E503F",
"n  c #73513F",
"m  c #3F4340",
"M  c #454A46",
"N  c #474B49",
"B  c #4A4E4B",
"V  c #424644",
"C  c #554C43",
"Z  c #5B4D44",
"A  c #594F48",
"S  c #4D514E",
"D  c #59514A",
"F  c #50554D",
"G  c #4E5351",
"H  c #525554",
"J  c #545956",
"K  c #555B59",
"L  c #5A5E5C",
"P  c #5A5651",
"I  c #654D41",
"U  c #634045",
"Y  c #655144",
"T  c #6D5243",
"R  c #6C584C",
"E  c #64554A",
"W  c #725443",
"Q  c #775846",
"!  c #7C5A46",
"~  c #755B4C",
"^  c #7B5D4B",
"/  c #765645",
"(  c #6A5C53",
")  c #635E57",
"_  c #765E51",
"`  c #5C615E",
"'  c #7F614F",
"]  c #76644B",
"[  c #65625C",
"{  c #68655C",
"}  c #7C6253",
"|  c #736358",
" . c #5E6361",
".. c #5E6867",
"X. c #616664",
"o. c #696662",
"O. c #636966",
"+. c #6A6B65",
"@. c #666C6A",
"#. c #696E6C",
"$. c #7B6C61",
"%. c #66716E",
"&. c #6A716E",
"*. c #76726B",
"=. c #6E7572",
"-. c #6D7976",
";. c #717674",
":. c #727976",
">. c #757D7A",
",. c #787E7C",
"<. c #BE6500",
"1. c #F87B00",
"2. c #815E4A",
"3. c #845C45",
"4. c #84624F",
"5. c #8D634A",
"6. c #846452",
"7. c #8A6651",
"8. c #8C6956",
"9. c #8D6E5B",
"0. c #936B53",
"q. c #926E5A",
"w. c #8F705E",
"e. c #94715D",
"r. c #99735E",
"t. c #9F7157",
"y. c #A1775E",
"u. c #867468",
"i. c #937361",
"p. c #9F7861",
"a. c #9E7760",
"s. c #A27A63",
"d. c #A87F68",
"f. c #76817C",
"g. c #79817E",
"h. c #F2BB36",
"j. c #80847E",
"k. c #A78069",
"l. c #DEA44C",
"z. c #C8917B",
"x. c #627E85",
"c. c #7D8582",
"v. c #7F8884",
"b. c #6E8585",
"n. c #828784",
"m. c #828986",
"M. c #858D8A",
"N. c #898E8B",
"B. c #87908D",
"V. c #89928E",
"C. c #8C9592",
"Z. c #8F9894",
"A. c #8D9F9D",
"S. c #919693",
"D. c #919A96",
"F. c #949D9A",
"G. c #989E9B",
"H. c #A19286",
"J. c #96A19D",
"K. c #99A29E",
"L. c #9CA5A1",
"P. c #9EA9A5",
"I. c #98A9A8",
"U. c #A1AAA6",
"Y. c #A3AEAA",
"T. c #A4ABA8",
"R. c #A6B1AD",
"E. c #A8B2AE",
"W. c #ABB5B1",
"Q. c #AEB9B5",
"!. c #AFBBB8",
"~. c #B1BAB7",
"^. c #B3BDBA",
"/. c #B0B7B4",
"(. c #C59F8C",
"). c #B7C1BD",
"_. c #B8C2BE",
"`. c #BBC5C1",
"'. c #BEC8C4",
"]. c #C0CAC6",
"[. c #C2CDC9",
"{. c #C6D1CC",
/* pixels */
"                  )._.^.`.n.                                            ^._.^.`.D.                  ",
"                  _.`.).].m.                                            ).]._.[.U.                  ",
"                  v.m.m.M.O.                                            v.M.M.V.v.                  ",
"                  V.Z.V.v.v.                                            g.m.S.D.&.                  ",
"        >.      K M.Z.V.V.g.                                            V.V.V.Z.#.        n.        ",
"      R.c.    U.Z.D.U.P.R.v.                                            Y.R.P.U.n.R.      E.V.      ",
"    ^.{.=.. M.^.n.m.D.Z.J.>.      :.V.M.M.N.&.        D.D.V.K.K.        S.A.Z.D.&./.U.    Q.'.D.    ",
"  ~.[.L.B N.W.S.v.F.F.D.C.c.      K.[.`.`.[.M.        _.[.`.{._.        V.H.J.F.Z.n.E.L.O.,.)._.D.  ",
"=.Z.m.:.;.^.Z.` F.P.L.K.Z.m.      Z.Q.R.W.~.g.        Y.W.W.Q.Y.        A.z.(.I.P.M.=.Q.D.>.M.M.m.` ",
"Z.m.g.f.;.K.&.;.M.M.B.V.Z.#.       .g.&.>.g.`         -.f.=.:.:.        x.l.h.f.C.B.M.N.Z.g.Z.-.D.#.",
"C.V.M.M.L ;.M.&.F.F.J.U.R. ..   . g.P.v.J.P.O.      s Z.P.M.F.F.}     o.b.<.1.] I.C.J.G.J Z.Z.M.Z.#.",
"F.F.K.m.;.M.>.m.V.M.M.C.Z. .m.Z.M.&.C.v.M.V. .v.C.Z.>.g.V.v.M.v.X.V.D.f.:.Z > %.D.L.C.L.Z.V.P.F.K.&.",
"M.V.=.>.B.>.M.f.B.P.K.J.V.;.V.E.W.f.P.K.L.F.X.S.U.^.D.>.L.L.L.Z.:.F.^.F.m.+.1 D.L.C.L.C.L.L.;.m.V.&.",
"`.].V.c.;.g.v.#.D.K.J.F.V.O.*.:.M.>.L.F.J.Z.H ;.*.D.>.:.L.J.K.Z.L ;.n.g.m.{ j V.P.C.M.L.v.L.m.^.[.B.",
"E.~.m.=.m.&.m.&.m.B.B.Z.Z.m.;.>.>.M.Z.m.C.Z.m.c.:.-.c.V.Z.M.V.Z.g.g.&.f.Z.*.i >.D.m.G.C.B.F.-.R.^.v.",
"f.g.` m.g.g.M.&.J.J.F.U.P.R.D.P.R.U.U.C.P.P.U.Y.G.K.Y.P.U.Z.K.U.Y.Y.D.U.U.J.m.Z.U.D.D.L.C.P.;.=.c.` ",
"Z.J.&.-.v.m.>.M.v.v.v.m.v.v.c.v.v.c.m.c.v.v.v.v.v.c.v.v.n.c.v.v.v.m.g.v.v.v.B.g.m.K.F.D.K.D.=.B.J.#.",
"V.D.@.>.M.>.N.-.M.G.D.Z.v.G.F.G.C.m.J.F.G.M.B.J.F.F.Z.v.F.F.J.Z.v.J.F.J.B.M.J.J.D.B.K.D.D.P.%.M.D.#.",
"P.R.>.g.=.g.>.` ;.#.&.%.#.=.#.#.#.@.%.%.%.@.%.%.&.%.&.#.%.&.%.&.#.%.%.%.%.#.%.%.-.v.v.J.m.K.>.J.R.-.",
"g.m.O.>.m...g.K - w 4 ~ R R R R R _ _ ~ _ _ _ _ T f I I I I I I Y I I I I I z g ' K Z.m.V.K.&.>.v.O.",
"^._.B.v.>.f...T 2.! ! 4.2.2.2.2.2.x 6 j 9 9 p j 9 9 t 9 9 9 9 9 6 z z z l l z l x z @.Z.M.L.v.Q._.M.",
")._.B.O.g...~ s.s.s.s.s.s.s.s.s.k.^ 6 c k k k k z k k k k k c t c ^ ~ ~ ~ ~ ~ ~ ~ ^ T @.Z.V.>.Q.`.B.",
"g.m...>.O.4 / n x n v v v v v v n k 6 9 9 9 9 9 6 9 r k t k r r p k c k k k k p d d d 7 O.D.#.>.m. .",
"V.D.&.K Y 6.' ' 4.' ' ' ' ' } } 4.4.6.} 6.6.6.8./ ^ i.9.9.9.w.i.w.e.9.e.w.e.w.d f g f z h &.#.B.D.#.",
"Z.D.O.< Q T W W W W W W W W W W W / W W W W W W z T ' ^ ^ ^ ] ^ ^ ^ Q ^ ! Q ! 8 8 8 8 8 8 w V M.Z.%.",
">.B.%.t ' ^ ^ ! ^ ^ ^ ^ ^ ^ ^ ^ ^ z z x x b b x b x x x x x x k c 8.7.4.7.7.7.7.7.7.6.7.7.5.| v.M.H ",
"M.E._.m.8.e.q.e.e.9.w.w.9.w.9.9.i.W W ! ^ Q Q ^ Q ^ Q ^ ^ ! ^ n ! s.a.s.s.s.a.a.r.s.s.r.r.u.Q._.Z.S ",
"U.N.W._.&.2 d d d d d x x x x x x x z z z z x x k 9 k k d k k p k z z c c c z r k d k k f U.`.V.g.` ",
"m.K.m.W.g.2 g g f f k e.e.e.r.e.i.i.e.i.e.i.i.i.6.x 4.^ ^ ^ ' ' 2._ _ ^ ^ ^ ^ e g f g f s Q.V.f.f.M ",
"C.U.m.B.@.1 8 8 8 8 7 W W W W W T W / / W T W / x d z k c z z l z z c z c z z 8 e e e 8 C v.O.>.c.N ",
"Z.E.J.K.+.0.t.e.q.r.e.q.q.0.q.0.r.n 5 j 9 9 9 9 9 k 9 k j p j 6 k W T T T / W ~ T W W Q z >.>.m.m.S ",
"Y.D.Y.K.{ 0.r.r.r.0.0.0.0.r.e.q.r./ 7 j k p j j k 9 9 t j p j 6 r W T / x c c k T T T W h %.M.g.v.O.",
"L.Y.D.R.:.+., 6 D V.Z.V.D.+.k x z x z x x x z x k z W T T W T W W W W E M.Z.V.D.;.n 3.R =.,.v.,.N.K ",
"v.U.D.V.v.Q.{ 3 ) _.'.'.[.g.3.8.6.8.6.6.6.6.6.8.W 6.i.i.i.i.e.i.i.q.r.| !.].`.].N.t.8.L.G.O.-.m.:.N ",
"D.L.m.U.:.R.T.{ q U.R.U.E.;.t z z c k z c z z z d k x x x x x x I T v I L.Y.T.W.;.k D.W.M.-.,.:.m.N ",
"D.R.K.L.T.>.T.R.@.-.g.>.=.) 8.9.e.T W Q Q Q Q / Q Q Q Q Q Q ^ x Q s.s.^ ..v.>.g.L S.W.M.:.M.:.M.c.H ",
"R.D.R.K.K.Y.:.E.V.m.J.V.M.o.! 4.6.x x W W n W v W b b T b b T c x 9.9.T -.F.Z.F.:.~.M.;.M.:.M.>.m.O.",
"F.R.S.R.K.K.U.m.g.B.D.D.F.L 1 e 8 8 d 8 e e 8 e 7 k x x n x x v x z x h B.F.M.C.,.M.;.M.:.M.,.c.M.G ",
"m.L.D.C.P.M.U.B.K K.U.P.Y.X.7 g g D C C C C A g e W ] R R E E ( _ Q 2.z F.U.C.K.;.K n.-.>.c.%.c.-.G ",
"Z.Y.n.Y.B.K.K.B.R.B.B.B.N.L j x 6 V.Q.E.W.W.>.2 d t D U.W.R.W.Y.D t f w c.C.M.B.M.,.-.M.#.m.:.>.M.M ",
"N.P.U.F.R.F.R.K.J.U.P.P.C.;.y.d.0.J.[._._.[.j.n ^ ^ ( ^.].`.'.).( Q _ g c.U.P.U.C.:.M.f.v.m.,.M.-.K ",
"F.V.U.P.F.R.D.R.L.C.C.C.M.o.! 2.b >.D.V.V.D.o.k I x A M.C.C.C.B.D x x h ,.D.C.C.v.M.g.v.m.>.B.=.c.G ",
"S F.M.L.L.D.R.V.Y.B.C.G.K.o.5.0.2.%.V.-.M.C.{ 0.2.k f c.C.:.v.m.w 6 6 q C.L.M.m.C.:.v.v.-.N.@.c.B B.",
"G @.:.N.F.V.K.Z.D.M.Z.L.P.O.$.u.| >.K.v.D.K.+.$.$.{ P C.L.n.C.D.S [ ) S D.U.M.M.v.=.g.:.:.>.X.L : C.",
"@.j.J F.M.D.T.M.Y.M.C.C.M.@.C.T.L.@.m.v.v.v.L C.L.W.M.,.C.V.Z.f.#.G.E.V.#.M.n.v.M.,.:.M.X.x.L K O.L ",
",.Y.>.L F.Z.L.U.D.L.Y.L.C.:.n.G.Y.:.L.D.G.V.L N.S./.C.D.Y.U.U.v.#.N.Y.S.#.G.D.F.M.>.N.-.j.[ G ,.x.*.",
"O.R.D.;.` F.V.T.P.m.C.N.M.O.X.` #.&.m.v.v.v.L X.L ;.O.v.Z.B.C.g.K X.O.O.=.m.v.v.c.M.;.,.) H @.M.=.L ",
":.P.Z.K.:.H F.g.P.D.Z.P.L.P.M.B.C.C.Z.v.L.L.L.J.B.L.J.L.P.C.F.P.U.S.Z.K.L.P.Z.F.D.X.>. .H >.,.,.-.*.",
"=.Q.Z.U.P.-. .>.D.m.C.F.D.F.m.m.V.V.B.g.D.J.F.D.m.F.F.D.F.M.C.F.G.M.M.D.D.F.m.Z.v.#.G H ;.N.:.M.:.O.",
"X.F.E.F.Y.P.;. .D.Z.V.M.,.V.M.C.N.g.V.V.V.v.v.V.B.V.g.M.V.V.V.m.c.C.C.C.v.v.C.N.n.` H :.B.>.M.M.#.X.",
";.L.Z.R.G.Y.P.:.L N.C.M.g.V.V.C.M.g.V.V.V.v.v.C.B.C.g.M.V.V.V.M.,.C.V.C.v.v.V.Z.O.S >.B.,.m.n.g.>.=.",
"` K.M.F.U.M.Y.C.>.` L X.X. .L  .X.X.X.`  .O. . .`  .O. .X.` ` X.X.L L  .X.X.L L ` #.m.>.>.m.&.M.#.` ",
"=.F.c.T.C.G.L.C.U.=.>.n.n.n.;.c.m.m.m.&.j.m.m.j.&.n.m.n.m.;.f.m.m.>.:.n.v.M.;.;.:.c.=.m.&.m.>.,.>.&.",
"X.U.V.L.Y.D.E.D.T.L.,.v.:.v.c.c.f.f.g.g.j.f.f.f.g.v.>.g.n.g.v.g.,.v.c.c.f.>.v.c.M.>.m.v.f.N.>.M.:.B ",
"@.C.K.C.P.T.F.E.F.P.U.P.C.U.P.U.K.D.Y.U.R.J.J.Y.U.Y.Z.L.U.U.R.L.D.Y.U.Y.G.F.R.L.>.M.v.g.M.>.M.m.&.#.",
"&.U.N.L.C.L.U.G.R.F.V.C.m.C.V.C.B.M.C.V.V.N.C.C.V.C.B.V.V.V.V.V.m.C.N.C.M.M.Z.m.m.v.g.M.>.M.f.m.x.) ",
"X.G.B.B.D.m.U.C.K.K.Z.L.L.L.V.F.K.K.L.B.K.F.M.K.N.U.Z.V.P.V.F.L.L.L.B.J.L.L.K.m.n.;.n.>.:.j.&.M.#.*.",
"f.Y.f.R.m.F.P.V.Y.M.Z.J.J.J.B.D.J.J.J.B.J.` # g.V.D.B - C.C.Z.K.J.G.B.F.J.J.J.c.j.x.;.N.&.m.>.g.x.N.",
"O.E.L.K.R.D.R.K.P.U.C.C.M.C.Z.Z.V.B.Z.D.f.# h - Z.X.$ q N Z.D.V.M.Z.Z.Z.B.B.Z.Z.M.,.N.,.n.m.,.V.*.;.",
">.K.U.P.K.R.D.R.L.K.U.L.C.U.P.U.J.Z.U.Y.f.$ a a U.&.* q J U.U.K.Z.U.P.P.J.D.U.J.>.N.,.n.M.,.M.g.&.n.",
"&.Q.D.U.P.J.R.Z.R.J.B.V.M.V.M.V.B.M.V.V.*.* s a M.X.- q H m.m.m.c.m.v.B.B.m.V.m.B.x.n.n.:.N.,.N.;.x.",
"X.F.D.D.L.V.P.Z.J.F.F.U.L.U.C.K.P.P.P.Z.f.# s u B.=.$ 4 L V.V.D.D.D.v.L.P.P.L.B.c.-.n.>.,.j.;.x.` ,.",
"#.K.g.E.Z.K.P.V.R.B.V.D.Z.D.m.Z.D.Z.C.M.f.u F u v.+.a B J m.m.M.M.M.g.Z.Z.Z.D.g.n.u.>.V.&.M.;.:.#.B.",
"V g.J.Z.E.J.U.P.J.R.D.D.M.J.D.F.Z.B.D.J.f.F  .F J.&.J ` K M.C.m.c.V.B.B.c.B.J.F.N.x.B.u.N.x.:.:.u u.",
"O.,.>.G.Z.R.F.Y.P.G.P.L.M.P.U.U.D.Z.L.U.f.M ` M K.&.S J F Z.D.V.v.D.D.G.n.S.U.J.>.V.,.m.x.,.*.P K N.",
"` V.;.,.D.m.W.Z.Y.G.c.v.c.v.,.N.N.V.V.M.g.&.=.&.m.f.&.-.:.g.v.v.c.v.x.N.m.N.V.m.M.:.m.g.=.:.H ;.) x.",
"g.L.v.O.#.n.D.Z.K.C.N.F.D.F.m.T.T.U.U.V.U.Y.Y.U.V.U.Y.Y.Y.C.V.F.D.G.m.P.U.U.U.M.,.>.:.:.#.B  .:.>.,.",
"O.R.D.,.:.,.F.n.R.C.c.m.m.m.x.N.B.V.Z.m.V.C.V.V.m.Z.V.V.Z.v.v.m.v.v.c.B.V.Z.V.g.M.>.;.:.H O.@.B.#.n.",
";.K.Y.G.m.:.,.K.Z.U.N.C.c.D.Z.C.M.M.L.K.K.Z.Z.L.K.K.J.B.K.K.L.F.B.L.L.L.C.C.L.J.,.:.;.G #.=.M.c.=.:.",
"=.W.D.U.F.n.:.,.K.N.C.M.x.N.C.C.m.M.K.J.K.V.V.J.J.J.F.m.F.J.J.D.M.L.F.J.C.B.L.C.;.:.H #.#.N.>.M.;.N.",
"@.L.D.Z.L.m.N.X.f.D.j.B.N.N.,.m.M.M.M.>.M.M.M.M.f.M.M.M.B.g.m.M.M.M.,.M.M.B.M.,.;.M #.#.>.x.*.M.O.>.",
",.R.M.Y.C.L.G.;.:.O.V.S.S.S.v.M.Z.Z.Z.g.V.Z.Z.V.g.Z.C.C.Z.v.M.Z.C.C.c.C.C.C.C.=.H X.@.M.#.M.,.u.>.c.",
"X.Y.U.F.R.F.Y.K.n.,.L ` L ` X.X.L L  . .` L L  .X.` ` L ` X. .L L  . . .L L ` o.#.=.M.>.n.v.g.V.X.v.",
">.L.P.U.F.R.D.R.J.g.m.n.=.n.n.m.x.;.M.n.N.>.>.m.m.n.n.=.m.n.N.x.=.M.n.m.>.>.M.c.&.M.,.v.v.,.M.g.;.>.",
"#.W.C.P.L.C.E.M.Y.D.;.,.>.f.;.>.u.c.,.=.>.>.>.f.;.>.,.>.>.-.u.c.>.,.-.,.>.>.,.;.M.:.v.c.:.M.;.M.=.M.",
"%.G.Z.F.F.m.F.M.S.V.Z.L.J.L.M.D.L.L.L.m.G.K.J.J.m.L.J.L.D.m.L.L.J.L.v.F.K.K.K.g.x.:.,.>.;.c.=.g.#.;.",
"#.U.m.Y.D.Z.G.n.L.m.v.M.M.C.v.M.M.B.C.c.B.V.B.B.v.V.B.B.M.v.B.M.B.B.c.B.C.B.M.,.N.c.>.M.*.N.:.n.#.m.",
"X :.U.Z.Y.D.D.K.V.L.Z.C.M.P.I.P.J.C.P.L.P.F.A.P.L.I.L.C.P.P.P.J.C.P.P.P.D.Z.U.L.u.c.M.>.N.x.m.=.H F.",
"= L >.U.D.R.D.F.G.N.F.Z.M.P.L.P.J.C.P.P.P.Z.Z.P.P.L.L.B.P.P.P.J.C.P.I.P.F.Z.I.G.>.M.>.v.c.c.:.N @.L.",
"& M.L :.K.n.W.m.F.D.v.M.M.M.v.C.Z.Z.B.B.Z.Z.Z.Z.M.Z.Z.Z.C.M.Z.Z.Z.D.m.m.M.M.m.c.M.=.v.c.>.:.m o.=.Y.",
"o F.D.O.@.C.F.m.Z.v.Z.L.J.L.B.P.E.W.J.L.E.R.R.Y.Z.R.R.R.I.A.R.R.R.E.B.F.L.L.G.n.,.>.:.n.O.F O.>.O.Z.",
"& C.U.F.O.>.U.M.L.B.v.M.v.M.v.C.V.C.B.B.C.C.B.C.M.C.C.V.V.B.C.C.C.C.v.M.v.v.N.x.m.>.g.;.B #.c.;.=.R.",
"o Z.D.G.F.O.:.T.C.P.Y.P.C.R.U.Y.L.Z.Y.I.Y.F.G.Y.P.P.P.Z.R.U.U.L.Z.Y.Y.R.A.B.L.F.,.n.:.B #.,.#.:.O.Z.",
"O D.C.G.F.n.#.;.U.C.J.Z.m.F.F.F.C.M.J.J.G.M.C.F.J.F.J.v.J.F.F.Z.m.J.F.G.C.c.C.m.v.:.S O.#.>.#.&.=.L.",
"O Z.U.K.G.F.F.H ,.D.M.D.Z.D.c.C.Z.A.D.c.Z.D.F.D.c.D.D.F.B.c.F.Z.F.M.n.D.Z.F.m.N.:.u +.,.#.,.>.:.@.P.",
"& G.K.L.L.L.L.D.#. .M.C.V.Z.g.N.C.V.C.g.V.V.C.N.,.C.V.C.M.c.Z.B.C.m.m.C.C.C.v.,.B #.>.:.,.>.,.:.%.D.",
"  D.Z.D.G.F.G.U.S.*. .X.L X.O.X.` L X.O.X.L L O.X.X. .K O.X. . .K O.X.X. .L @.L #.,.:.>.=.,.X.=.#.L.",
"  F.D.L.D.V.L.N.U.G.x.c.=.m.n.m.g.;.m.n.n.>.>.n.n.n.n.=.n.n.m.g.;.m.n.m.>.:.m.#.,.#.:.;.X.,.=.>. .:.",
"  &.U.G.L.G.L.C.L.C.g.v.v.v.>.g.v.c.v.>.c.v.v.c.:.v.v.g.n.:.g.m.v.v.:.c.v.v.v.O.:.&.;.,.:.:.;.#.K m.",
"  :.,.L.K.L.G.P.K.J.V.Z.Z.Z.g.B.Z.V.Z.g.V.Z.Z.f.B m.Z.Z.Z.v.M.Z.C.Z.g.V.Z.C.C.:.,.>.:.:.,.f.O.` L =.",
"  #.:.&.G.C.P.D.L.L.D.M.>.V.V.V.m.v.B.B.V.v.B.&.+ x.S.c.B.V.V.M.v.V.B.C.v.c.C.g.:.:.>.;.&.O.L `     ",
"    [ =.=.C.L.m.J.J.M.V.g.C.V.Z.V.m.Z.V.Z.M.V.>.* v.S.m.C.V.Z.B.m.C.V.C.m.v.C.=.,.+.&.,.L ` S       ",
"      O.,.,.L.D.L.V.V.D.Z.Z.v.K.P.L.L.B.L.L.P.g.+ C.I.L.P.C.J.L.P.A.m.D.Z.D.C.#.>.;.,.#.X.`         ",
"        O.,.>.P.K.P.Z.m.B.V.v.V.Z.C.Z.B.Z.Z.A.>.; m.D.C.Z.B.Z.Z.C.M.v.B.M.M.M.,.:.,.#.X.`           ",
"          O.,.=.K.K.D.Z.v.A.Z.Z.B.B.P.P.P.Z.J.v.; V.P.B.P.P.P.J.v.F.Z.F.B.C.L.,.,.O.` [             ",
"            O.@.g.Z.m.B.m.B.v.B.B.B.C.B.C.B.V.g.K v.C.M.C.B.B.V.M.B.m.M.M.M.C.=.#.J K               ",
"               .c.=.S.L.G.L.M.F.L.J.K.m.G.L.L.F.B.L.F.L.L.N.D.L.G.L.m.G.L.L.J.O.X.L                 ",
"                [ x.=.#.X.#.#.#.@.O.#.@.#.O.O.#.@.#.@...#.#.#.@.X.#.#.#.@.O.%.#.L                   ",
"                  o.>.:.O.:.>.,.-.#.:.:.>.%.&.>.>.:.:.O.>.>.x.-.#.>.-.>.&.#.,.L                     ",
"                    X.K K  .L  .K G G G G B B G B G G S K K ) H G K H K G G K                       "
};
