/* XPM */
static char *_671810077e643aaae47be069532df4bXb9CqiuNKtObjbyQ[] = {
/* columns rows colors chars-per-pixel */
"50 50 118 2 ",
"   c #46413F",
".  c #454241",
"X  c #4C4645",
"o  c #4F4846",
"O  c #4D4C4C",
"+  c #524D4D",
"@  c #57504F",
"#  c #58514F",
"$  c #555353",
"%  c #5B5655",
"&  c #5F5857",
"*  c #5D5B5B",
"=  c #605957",
"-  c #635D5C",
";  c #66605F",
":  c #625F60",
">  c #5F6060",
",  c #646363",
"<  c #6B6464",
"1  c #6E6867",
"2  c #6C6B6B",
"3  c #716767",
"4  c #716867",
"5  c #736C6C",
"6  c #6F706F",
"7  c #76706F",
"8  c #79716F",
"9  c #736F70",
"0  c #747474",
"q  c #7B7574",
"w  c #7D7877",
"e  c #777878",
"r  c #7C7A7A",
"t  c #827D7D",
"y  c #86807F",
"u  c #88807F",
"i  c #858383",
"p  c #898585",
"a  c #8F8987",
"s  c #8C8B8B",
"d  c #928C8B",
"f  c #918D8D",
"g  c #948D8C",
"h  c #958E8D",
"j  c #968F8E",
"k  c #96908F",
"l  c #97908F",
"z  c #909090",
"x  c #909091",
"c  c #909191",
"v  c #919292",
"b  c #949292",
"n  c #949393",
"m  c gray58",
"M  c #959595",
"N  c gray59",
"B  c #989190",
"V  c #989291",
"C  c #999392",
"Z  c #9A9493",
"A  c #9A9595",
"S  c #9C9695",
"D  c #9D9695",
"F  c #9D9796",
"G  c #9E9796",
"H  c #9E9897",
"J  c #979898",
"K  c gray60",
"L  c #9F9998",
"P  c #9C9B9B",
"I  c #9C9D9D",
"U  c #9D9D9D",
"Y  c gray62",
"T  c #9F9F9F",
"R  c #A09B99",
"E  c #A29D9C",
"W  c #A59F9E",
"Q  c #A5A09F",
"!  c #A3A3A3",
"~  c #A7A1A0",
"^  c #A5A5A5",
"/  c #A7A7A7",
"(  c #A8A2A1",
")  c #A9A3A2",
"_  c #AAA4A3",
"`  c #ACA6A5",
"'  c #ADA7A6",
"]  c #A7A8A8",
"[  c #A9A9A9",
"{  c #AAABAB",
"}  c #ACACAC",
"|  c gray68",
" . c #AEAEAE",
".. c #AFAFAF",
"X. c #B1ABAA",
"o. c #B2ACAB",
"O. c #B3AEAD",
"+. c #B4AEAD",
"@. c gray69",
"#. c #B2B2B2",
"$. c gray70",
"%. c #B4B4B4",
"&. c gray71",
"*. c #B6B6B6",
"=. c #B7B7B7",
"-. c #B9B4B3",
";. c #B9B9B9",
":. c gray73",
">. c #BBBBBB",
",. c #BCBCBC",
"<. c gray74",
"1. c gray75",
"2. c #C1C1C1",
"3. c #C2C2C2",
"4. c #C3C3C3",
"5. c #C5C4C5",
"6. c #C6C6C6",
"7. c gray78",
/* pixels */
"- < w t q 5 q t 5 ; 2 t s i i s c c e , 6 i c c c i s v i 6 6 i s i p s x x e 2 > 2 e w t 5 q t 5 - ",
"5 Q o.o.X.X.Q W ` < M 3.@.,.6.6.,.;.*.i c 6.;.4.4.3.,.;.3.r c 3...<.7.5.<.;.*.i i @.~ O.o.X.( ( o.: ",
"p ' R D R R g a S t c |  .$.*.$. .[ *.c c @.$.$.$.@.] ] $.c c { ..$.*.$.| ] %.x q D H H R D a g ' t ",
"p Z B D D u t t q + 0 n c M N c s c c , 0 c N J J c i J x > 0 c x b M x s x s , : t t r u p a D ( t ",
"r B b B l - = < 1 $ > 2 6 2 e 6 , 6 e , , e 6 6 e 6 6 r e > > 0 2 2 e 0 2 2 t , # : : = % t B D X.t ",
"; B B D g = 5 4 r 2 0 s c i i s s s ! r 7 c s s s i c i K i 6 s x i i i s s T t % 8 q : + t l l ( t ",
"1 8 y s 7 X = 8 2 e r 0 0 0 e t > e e e 0 0 e 0 e r , e 0 r r e e e e t , e 0 e 5 1 t e # 8 t u t - ",
"< ; i e * @ 2 b x s x x x s K K 6 c c J s i c s J J 6 c c s s c x s K K 2 b x J f p P b + : t t : 3 ",
"t %.] { c * O % * * $ % % $ $ % $ % * % * O O : $ O + $ * $ $ % $ $ $ $ $ $ * $ * O O $ , b { $.o.3 ",
"i 3.] ^ I , O , > * * $ % - % > > * 2 5 : : : : > > * 9 2 , , % : < : : : : 2 2 > * , * 2 P | <.<.e ",
"i >.^ { I , @ * * * * > : t p s p 0 t i w t f s s i e e p r t i r x f s p 9 u i e t x t 2 I ..;.*.q ",
"i 1.^ ] J > O $ * , % * : r c Z f r s N i q i i i i t r s c i i w s Z M x r s b i e p t , b [ $.<.0 ",
"i ;.@.{ c $ > > % $ % > e r t r e i t i t r f b f k v s r t i p s u u r r u t u t r Z p > x { $.;.t ",
"r ;.@.| M * $ * $ $ 2 5 i p p t f H b x f r q i s s s t r w K K M s s t s P b x x e r r > x ! <.,.2 ",
"; e c i 6 $ $ > , * $ * 5 r r w i b b f i i s p p t t s f p t y u u t w p x v s u p s y 2 0 t p 0 2 ",
"e ! ! Y i O $ * , , $ , r i r r t i t w t r S S f i q s S x w s x s u r t i t w u t K x > r N ^ P 9 ",
"i 2.%.$.P $ $ * $ * $ : t t 0 K Z f t t D f t f i t i t i p t p b i r S S s t t S f i p , b ..1.1.8 ",
"p <.@.| K : : , : : $ $ 9 t r i i i w t x b i t t i K b f p r w t p t u p y w t f v u 0 2 K { { -.t ",
"s 5.%.@.P * O : $ $ : < t i 0 i b Z b f w t f x f t t a t r f b c f t t v S v f r u x p 2 J T %.5.t ",
"p ;.| @.K : : , : * * 2 t r t i i p x t e i f f i t x x x i p x c i i t i p x t e i b p 2 J [ <.-.q ",
"i 2.@.] x $ * : : $ $ : 9 q f b s t r a a p q t r t s f a t r u t t K b f t t p s p w q : x [ 2.;.: ",
", J T x e $ * $ O : , , t 0 w Z W f t b K f t b Z f p r 9 f S f f t t S Y a t x K s r f 2 q x P c 2 ",
"2 e J s < $ $ : : % < 2 w 0 t p s t i r i t t t i t i f f i S v g t i i f t t t p t t r : 9 x J t 2 ",
"r ;.@.| b * O : * $ $ $ q s x x r t d s p t b b p r r p p q t q t b S b r t f d p t b s : K @.;.,.9 ",
"x ;.T { P > O * * * : $ 9 r p f w p x f f r w b p r r p p s s w r p p s w i x f s r r s 6 I  .$.$.e ",
"r <.{ ^ J > O , : * * % q s t i p r f f t i f p p p t b x p u t a x p p a r s f t i s t 2 I | >.;.e ",
"s >.! { I > O $ : * * : 2 f Z Z x r a f i t f x f p t e s s p s r R Y D x r a f i t x p 2 I O.*.*.0 ",
"i <. .{ x * $ * * : $ * 2 w i x p w i x t w p p p u p t p s r t r t s a i r p d t w s t : b ` $.,.e ",
"9 $.| T s O : : $ $ : , t i u r r f u p i r a x x S x s r w f f g s i r t s p i i r d p = p ! ;.*.2 ",
": : q 5 * O * $ $ $ : 9 t t i t f E Z x f r q t p u i t r r S S b s p t f E S B s r q t = = 5 9 + , ",
": p p Z p + O , < : + * 9 r r w t p f p t p b f x p t Z K s q r t i t e t p s i t p S i = t t p p , ",
"5 E Z H K $ . $ * : $ : r i w r i t r r i r s x u w 9 t p x r s f s t t t t t r i e f s # t a R -.p ",
"t l D D Z 3 = # +   : , 2 2 6 9 0 2 > > 6 2 6 0 6 2 6 2 > $ 2 2 2 2 6 0 6 6 > > , * - - : t R l +.t ",
"u D g D l B a t u : t b Y ! ] ^ T J I e r I ^ ! T ! K v I e r J I ! ^ ^ ! J I e : i s p a g g u R t ",
"u o._ E ~ E g E ( t k ;.@.;.;.*.{ $.>.c c >.*.*.>.*.] $.;.s v >...;.>.*.{ $.>.v i ! W W ! E d ~ +.t ",
"3 l ( ' ' ' R ' ~ - f 2...;.2.;.{ *.$.e x ,.$.1.1.1.*.1.*.e c 4.{ >.1.>.{ *.$.e t _ D _ ' ) R X.W - ",
"# : = = - = : : $ . $ 2 r , r r 6 6 2 O $ 2 e 0 i e 0 e : $ $ 2 e 2 r r 6 6 2 O X = - - - = - - $ o ",
"t D 3 t 8 3 q 3 0 * c ! s s i c s c c 2 i I s x s s x i c 6 x T s s i x s c v 6 5 t 8 q 4 5 8 q - - ",
": t - - = < 3 3 2 < e e e e 9 e r e r e 0 e e e 2 e e e r 6 e e e 0 2 e r e e e < - 3 : = - < - - X ",
"3 u : t # a E t s s i i s s 2 s T x i x c r i x 6 i T i s s i i s s 2 s ! s i v k p p l 3 t t 3 : % ",
"< t # = - 3 0 5 2 , e r 2 5 0 e e e 0 6 e r 2 6 e e e e 0 2 r e 6 6 0 e e e 0 6 9 w < 1 1 - : : # o ",
"t l 3 5 t q 5 q 9 # p ! s p s s i x x 2 r J i i N c x x x 2 i ! s i x i i s x 2 : t < 3 w w 8 t - = ",
"= t = - = < 1 - : 2 r r r e 6 e r 0 e 6 e 0 6 0 6 e e 6 2 e e r r e 6 e t 6 e 6 3 < : < - - - = # X ",
"1 t 8 8 + t Y p B N x x c c 6 s K i x s i x x s 2 r J s x x x c c c 6 x K i x s p x k s 3 3 t 8 < = ",
"t t # - - < 1 5 6 2 e r 6 0 e e 6 6 0 6 0 e 6 e 0 6 0 e e 9 0 r 0 e e r 9 6 e 6 5 5 1 5 3 % = - + 3 ",
"t a 3 t r 5 < < 2 O i T s i s s s r x 6 e J x x c x i i s 2 i T i i s s i i c 6 : t 3 5 8 t 3 3 - = ",
"8 t = 3 * 1 5 , < 9 r e e e 2 0 r 6 6 0 e r e e 6 e e 6 0 e r e e e 2 6 r 2 9 e 9 5 1 5 - - < - + 5 ",
"3 a 3 t - t I c N B c i s s 2 i T x t s x s x v 0 r J x x x c s s s 2 i T x t p c s g B 8 1 t t 1 - ",
"t t = = - - 4 - 4 - 8 q 1 2 r r 9 2 6 2 6 r 0 0 e e 0 6 0 2 0 e > 6 e e 0 6 6 2 , 9 < < < : : - + 5 ",
"t l 3 t t t 4 5 t = p R s x N Z s s K 0 i T v c N v s i v 0 i K s J J J s i J e 6 i q q q q 3 5 < - "
};
