/* XPM */
static char *_6326ced77644049bf048ec88b11fffdELtTXMA0RycHiiM3[] = {
/* columns rows colors chars-per-pixel */
"50 33 216 2 ",
"   c None",
".  c #171919",
"X  c #1D2E31",
"o  c #192728",
"O  c #373A36",
"+  c #3C3C33",
"@  c #252624",
"#  c #422D08",
"$  c #40341C",
"%  c #533A0B",
"&  c #4F4F3E",
"*  c #584E37",
"=  c #5E5436",
"-  c #604E2D",
";  c #715D39",
":  c #675433",
">  c #434742",
",  c #4C514B",
"<  c #53564E",
"1  c #505447",
"2  c #444F50",
"3  c #595F59",
"4  c #585A53",
"5  c #655F45",
"6  c #6D6248",
"7  c #736244",
"8  c #766A48",
"9  c #67665A",
"0  c #756E5C",
"q  c #72715C",
"w  c #7A7659",
"e  c #686C63",
"r  c #7A7761",
"t  c #7A7B6C",
"y  c #767967",
"u  c #767A72",
"i  c #806D54",
"p  c #85755A",
"a  c #837C62",
"s  c #847C6C",
"d  c #7F8264",
"f  c #7F8579",
"g  c #92845D",
"h  c #9A875D",
"j  c #848063",
"k  c #84826C",
"l  c #8A8668",
"z  c #928967",
"x  c #9B8D64",
"c  c #948B6A",
"v  c #998D6A",
"b  c #908360",
"n  c #96916E",
"m  c #9D946E",
"M  c #858675",
"N  c #8B8B72",
"B  c #8B8D7D",
"V  c #87887A",
"C  c #938E74",
"Z  c #9C8E73",
"A  c #8D937D",
"S  c #949273",
"D  c #9A9574",
"F  c #9E9A76",
"G  c #94927C",
"H  c #9B947B",
"J  c #9B997C",
"K  c #A3946B",
"L  c #A5996E",
"P  c #A18D71",
"I  c #A59575",
"U  c #A99574",
"Y  c #A39B75",
"T  c #A39B7A",
"R  c #AA9D7A",
"E  c #AB9E76",
"W  c #BB9D7B",
"Q  c #B19779",
"!  c #A48B6B",
"~  c #ACA27A",
"^  c #A7A27D",
"/  c #B2A57D",
"(  c #B9A77B",
")  c #7F9582",
"_  c #878E81",
"`  c #8E9282",
"'  c #959483",
"]  c #9C9B84",
"[  c #979C8B",
"{  c #9C9C8C",
"}  c #959889",
"|  c #9C9E94",
" . c #969B91",
".. c #A19E81",
"X. c #A09F8C",
"o. c #B29E86",
"O. c #9BA088",
"+. c #9DA394",
"@. c #A6A383",
"#. c #ABA483",
"$. c #AFA984",
"%. c #A3A38B",
"&. c #A2A98C",
"*. c #ADAA8A",
"=. c #AAA68A",
"-. c #BCA183",
";. c #B4AA84",
":. c #B9AD85",
">. c #B4A68C",
",. c #B4AD8A",
"<. c #B8AE8A",
"1. c #B7A688",
"2. c #B6B18D",
"3. c #BCB28C",
"4. c #A4A594",
"5. c #ACAB93",
"6. c #ABAC9B",
"7. c #A6A895",
"8. c #B2AD94",
"9. c #B9AD90",
"0. c #AEB19B",
"q. c #B5B293",
"w. c #BBB493",
"e. c #BCB895",
"r. c #B4B29A",
"t. c #BEB79A",
"y. c #B7BB9D",
"u. c #BABA9A",
"i. c #AEB1A3",
"p. c #B5B5A3",
"a. c #BBBAA2",
"s. c #B2B5AB",
"d. c #BABBAC",
"f. c #BCBDB0",
"g. c #A9ABA0",
"h. c #C2A788",
"j. c #C4AB8C",
"k. c #C6AB8B",
"l. c #C3B48D",
"z. c #C9B98B",
"x. c #D0BF8F",
"c. c #CBAE90",
"v. c #C3B592",
"b. c #C3BA94",
"n. c #CABE93",
"m. c #C4BB99",
"M. c #C7B69B",
"N. c #D5BB9C",
"B. c #D8BD9F",
"V. c #D1B795",
"C. c #C4BDA4",
"Z. c #C1BDAE",
"A. c #C8B6A2",
"S. c #D4BDA1",
"D. c #D8BEA3",
"F. c #BFC1A9",
"G. c #BCC2B7",
"H. c #CBC29B",
"J. c #CEC195",
"K. c #D4C79E",
"L. c #D9CC9C",
"P. c #D6C89A",
"I. c #CAC3A5",
"U. c #C4C3AC",
"Y. c #CBC4AB",
"T. c #CBCAAD",
"R. c #C7C5A6",
"E. c #D3C4A4",
"W. c #D3CAA4",
"Q. c #DACDA3",
"!. c #D4CCAB",
"~. c #DBCCAC",
"^. c #D8C5AC",
"/. c #DDD1A2",
"(. c #DDD2AA",
"). c #C6CAB3",
"_. c #CBCAB4",
"`. c #C7CBBE",
"'. c #CDCCBB",
"]. c #C4C5B6",
"[. c #D3CEB4",
"{. c #DBC9B2",
"}. c #CDD1BC",
"|. c #CED4B7",
" X c #D4D2B4",
".X c #DBD6B4",
"XX c #D5D3BE",
"oX c #DBD6BA",
"OX c #DED8B4",
"+X c #E3C7A9",
"@X c #E2D5A8",
"#X c #F0D1AF",
"$X c #E1CEB7",
"%X c #E0D7B3",
"&X c #E3DBB5",
"*X c #E3DDBB",
"=X c #E9DEB8",
"-X c #EAE3BB",
";X c #E5E0BC",
":X c #CBCEC2",
">X c #C1CFC1",
",X c #CED2C1",
"<X c #D3D6C3",
"1X c #DCDBC4",
"2X c #D2D6C8",
"3X c #DADCCB",
"4X c #D6D9C7",
"5X c #DDDFD2",
"6X c #E6DEC0",
"7X c #DEE0D1",
"8X c #EDE8C2",
"9X c #F3E7CA",
"0X c #E2E4D6",
"qX c #EAE8D8",
"wX c #F6EAD9",
"eX c #FAF8E8",
/* pixels */
"                                                                                                    ",
"                                          :X,X                                                      ",
"                                      ,XeX7X2X7X3X2X                                                ",
"                                    a.5X2X:Xd.5XqX:Xi. .d.U.F.                                      ",
"                                    3.2.t.U.`.5Xs.u  .].2Xf.s.Z.S.                                  ",
"                                    ~ Y ~ T T q.p.f.2Xs.+._ A.{.$X{.d.G.].Z.'.d.q.H.                ",
"                                  T T D F F F Y T =.a.p.4.A.{.D.S.'.>X:X0XqXqX3XH.n.                ",
"                                { J D z z n n D D Y Y H >.S.S.S.M.i.Z.Z.f.p.d.~.Q.w.' X.X.4.q.@X    ",
"                      }.7X3X>X3X7X` & N S k w j j l S k P V.c.V.#.S n D D x L <.W.%.0.U.I.Y.(.+X    ",
"                    8.oX7X7X`.:X7Xd.e 3 ` ` 3 o a I I Z P Q o.h.F G J D F T Y :.J.k t.%X_.I.P.*X    ",
"      %.] ' X.' e %.] R ).6.p.s.0.p.y.7.7.y.*.G ..v.N.B.N.w.#.c w w a a S F T P.~ q #.8.C.x.K.6X    ",
"  a.}._._.U.Y.' + t ' c :.:.~ / :.;.,.:.,.3.q.e.u.t.#X+X+X>.d 8 = p ~ =.p $.,.H.b w C C K.P.%X9X    ",
"   X<X}.' ] '.B @ 9 ` z R <.;.;.2.e.2.*.2.5.&.@.J H 1.Q U p i 7 q N ] X.5.m.v.T m E E z.@X@X*X      ",
"  U.1X}.] 4._.a.4 4 V r R m.,.2.q.e.*.^ @.N q r G [ u ! W W W Z D G =.Y.Y.K.N.v $.E R R :.9X        ",
"  Y.XX_.i.4.` X.G s G C D T #.^ @.^ *.u.q . > +.7._ s h.-.-.o.B A R. XoXI.%XQ.    ;.:.l.J.          ",
"    _.' G C 8.i.5...l l H...N M N B 0.U.u 3 7. .+.3 U k.-.-.%.) 4.U.Y.C.C.@Xn.t.                    ",
"    I.1.Z ; I.,XG.0.J D :.:.,.v.e.q.5.r.7.+.F.+.2 0 j.h.h.1.d.U.4.{ X.X.A.L.l.M T                   ",
"    I 8 % # K 6X4X|.M 9 $.*.,.q.,.,.e.T.!.R.).}.p.>.c.j.c.>.4.5.8.q.9.v.L.@X~ ^ @X                  ",
"    T g 7 : ; m.3X1XO.d F ,.2.q.*.*.*.*.5.2.u.F.U.E.D.D.D.r.=.;.,./ ( ;.H.&XQ.&X@X                  ",
"      v       x  X|.T.&.[ ] N D ,.$.T Y F F D ] O.>.N.M.D.,.=.9.q.t.w.w.v.@X*XQ./.                  ",
"              h 3. X4.} 5.6.5.*.;.z * $ 6 d y d 1 + e V s t q k T ~ ;.l.H.=X/.                      ",
"                ;.I.Y.W.!.m.<.z = # * w M A 5.y.t O , u _ V < X M j.{.wX9X/.                        ",
"                l.W.K.W.m.x : - 6 a G ] O.y.u.T.).V O > [ 4.[ 6. XXXeXeX                            ",
"                  U b.H.3.x 8 7 :.] 6.).T.N 9 7.4X<XF.' e V R.*X*XoXwX                              ",
"                    z.J.z.~     K / T.'.1Xa.4.p.).U.6.V a.OX&XoX&X!.                                ",
"                    ( l.          K ~ I._.3X<X).7.u 4.oX8XOX.X!.                                    ",
"                                  b g Y m.U.y.M {  X8X-XOXOXK.                                      ",
"                                3.;.b b K 3.*.R.-X-X;X*X.XW.                                        ",
"                                  l.,.v c x n.-XOXOX;X!.                                            ",
"                                      w.#.v L !.&XOXL.                                              ",
"                                        e.3.n H./.L.                                                ",
"                                          H.e.H.                                                    ",
"                                                                                                    "
};
