/* XPM */
static char *_559c762110c495582a80eb837c9657efpg8ZYY94lisibbk[] = {
/* columns rows colors chars-per-pixel */
"50 50 95 2 ",
"   c #3F4042",
".  c #434446",
"X  c #464749",
"o  c #47484A",
"O  c #48494B",
"+  c #494A4C",
"@  c #4A4B4D",
"#  c #4C4D4F",
"$  c #4D4E50",
"%  c #4E4F51",
"&  c #4F5052",
"*  c #505153",
"=  c #515254",
"-  c #525355",
";  c #535456",
":  c #545557",
">  c #555658",
",  c #565759",
"<  c #57585A",
"1  c #58595B",
"2  c #595A5C",
"3  c #5A5B5D",
"4  c #5B5C5E",
"5  c #5C5D5F",
"6  c #5D5E60",
"7  c #5E5F61",
"8  c #5F6062",
"9  c #606163",
"0  c #616264",
"q  c #626365",
"w  c #636466",
"e  c #646567",
"r  c #656668",
"t  c #666769",
"y  c #67686A",
"u  c #68696B",
"i  c #696A6C",
"p  c #6A6B6D",
"a  c #6B6C6E",
"s  c #6C6D6F",
"d  c #6D6E70",
"f  c #6E6F71",
"g  c #6F7072",
"h  c #707173",
"j  c #717274",
"k  c #727375",
"l  c #737476",
"z  c #747577",
"x  c #757678",
"c  c #767779",
"v  c #77787A",
"b  c #78797B",
"n  c #797A7C",
"m  c #7A7B7D",
"M  c #7B7C7E",
"N  c #7C7D7F",
"B  c #7D7E80",
"V  c #7E7F81",
"C  c #7F8082",
"Z  c #808183",
"A  c #818284",
"S  c #828385",
"D  c #838486",
"F  c #848587",
"G  c #858688",
"H  c #868789",
"J  c #87888A",
"K  c #88898B",
"L  c #898A8C",
"P  c #8A8B8D",
"I  c #8B8C8E",
"U  c #8C8D8F",
"Y  c #8D8E90",
"T  c #8E8F91",
"R  c #8F9092",
"E  c #909193",
"W  c #919294",
"Q  c #929395",
"!  c #939496",
"~  c #949597",
"^  c #959698",
"/  c #969799",
"(  c #97989A",
")  c #98999B",
"_  c #999A9C",
"`  c #9A9B9D",
"'  c #9B9C9E",
"]  c #9C9D9F",
"[  c #9D9EA0",
"{  c #9E9FA1",
"}  c #9FA0A2",
"|  c #A0A1A3",
" . c #A1A2A4",
".. c #A4A5A7",
"X. c #A8A9AB",
/* pixels */
"A D J w c Q R A ! K P 8 Q A Y R Y P U Y U p A F I ^ R V Q G t ~ G ^ R P J K h n E P G U U 1 8 t u f ",
"I A F c c N G Q G P J > Z Z V k C l n V G u V K ! G P D C v f G P Y G K I U h z G V N F R a A ! P Y ",
"I G A c p M F V D Q J : f c c k u y v l c 1 l Q A P P Y ! n a F A P K P P K k n U G Z D P 9 c A D K ",
"A G A n u F I b P K l > k C c c z M U M b 6 b ` G Q V n n 6 8 J R K Z K Y Q l f J A Z D K q z Z A G ",
"I P G c * 3 3 > 4 u 8 o 3 t 8 a p a h 4 3 X 3 w > - ; 6 & X a E P F A G G D q > q 6 6 q s & a M G I ",
"G D K h w A D Z f A b : t n Z Y U E Q A b 8 V b M N M V c 9 p ^ K J G I K I p > V V C D I u V P D J ",
"K Z P w f ) U G Q J f - A ' ~ Y E ~ ` ] G 9 E P K U V b U h < Q ^ J n M G ] N 4 c n A F I w z N K Y ",
"Q n R a c G k K n c h q K G Z U E P G [ I 6 ! A M f n F Y h X q f b n w + 6 6 5 A F F F P t M G D K ",
"R ^ Y f k U F n v k c q ` N C A I G I ! K 9 D J M c c c Y n - c M n n N V n f q Z z K N I g e A F E ",
"y p u ; 1 u q w y q 6 > ' F Y P J G R ^ K 6 F I D N c k P A p E D D F G P P C l J Z Q P Y q & < > 9 ",
"M M N c b n c A z M c q ^ V G F Z F R ! F 6 G Y V V b c K n 9 Z F J J G K P C k ( Y Y G G t g k b D ",
"K K G A A V N J J F N 6 [ ' Q A Y Y ! E C 1 C F l n N M F f - y 9 y p t t t 8 ; p t q 8 y > A J A Y ",
"P P A Z A A Z G G K G > K ] P A C C A D n 8 P I V V n b V a q V z V D A Z D C b v V V C C 8 A V G E ",
"Y Y Z A J G P P D E U + 6 p q a 5 5 8 t t ; A D F A v b M f l ^ K I Y Y Y Y Y I R ~ ! Q Y w M V F Y ",
"R Y Z A J A K P ~ ( M 3 D J F N D A D A N t Y P K A n A C p k ~ P A n M Z A A A G G F A P e v G R ` ",
"z k 9 t t 1 8 e w h % : P F Q J J P I J Z u R P Y G N K A y g ~ ! C c n F I I Y I P U P E 6 > 6 y k ",
"a f h . k A G J A V M > v K P I P Z G K D t I G Q P P K Y p s Y Q G c V G N A P G V F Y J < s z c b ",
"K K P 9 K Y I P I P P 9 M P K P D M K Q A 3 F Q Q ! ^ E Y f h ! U E Z C U R I V J G Y R J q M D D G ",
"F A A 6 J K D F G P P 6 b G G P I G R R b # p c M n v l V t u A c A n h v N h p k c n c k : c A G J ",
"K V V 1 F G A K Y I A # 3 q 3 > 1 1 8 8 6 - e 9 3 > - & 6 % * y z b c l s w - p f f s p p % f C G P ",
"Q D C 3 G G A K Y U F < c K P K C V V Z P I ^ U P E E F F s b ] ` ~ ^ ^ Y D e P I K K I Q t M Y K Y ",
"n k h - A G Z D Q Y G 1 M Q Q Y ~ I P U Y F D K I E R F A u k ^ Y P P P Y Y 5 M Z C Z K Y < 8 f z n ",
"l f h * F I J G R U D > b Q Y P A D K U R Y Y ^ Y U P G P s k Q Y J G F U ) 6 n V F G J Y 3 6 a h z ",
"P A V > G P D C U Y G 3 V ( ( Q J ! ^ U Y ^ U J Y R ! Q Y u h ^ ! J G G P ^ 5 K C Y U G Y 9 f n U Q ",
"P c c 4 n C V D F P G e V ' ' ^ ) P Y F Q ^ E R Y J ( Y ( t n E R Y G G ! ^ > V F U I Y ^ 6 f Q K I ",
"U A n 9 h M k n D I Y q 4 q 9 f h y a t g h V F N G A F K % M I E Y F A Y ! > V R U F Z R 3 f I K I ",
"A A n w p C c Z p f c 5 w e 6 t 8 w t p q # 6 6 t f e e h X V ) D F A G ^ ~ 3 b D J Y U ` 4 f A A G ",
"I P Z 4 5 f e u e q y 3 N Q P P U E K I V t P P K G ^ R ` c M ^ P P P I ) ! 6 v J G P D Q 5 c P P U ",
"A Z F 6 b Y ~ ` ( ~ I w c Y K G A J Z P N q I F D V K n K c V X.K G Z V Y Y f J P F G A R q v G F P ",
"! P J 5 b G P G J ! E w k Y U G A K P ! G g E V z J D G Y y v ! P I J A Y P k P Z P E E P 6 c F P Y ",
"^ J N 5 z F N n P ^ ^ e p M l p g f p p 8 9 Y G N K M N U h M ) I Y E J Y V q h n V b n s > k P Y Q ",
"g e < % p P M V J ) ^ 6 3 p f c g u p 9 > 9 R G I A G N Y z + 8 > 6 e q s q > y q 3 + 9 e 5 t p p f ",
"A D A 6 c J n J P K ) 6 s ' ' ' ] ..^ ` b w G V b A D v A v 8 I Q ! E Y Y ~ ! R Q E t I U I ^ Q Y Y ",
"Z D G w N E A Y U Y ) q l ) R ) E ( Q ) C p Q I F P I V F c g ` R ! ~ E R Q Q Y ] ~ q G E R Q G E E ",
"A J P q n R C A G ^ ` 3 p ^ I Y Y ! ^ ] Z : k w 9 w p 6 a 5 z [ P E ! Y U I I K Q ~ w G E U U Y Y Y ",
"G P Y y M ^ K J G ~ ( t u ^ ! Y G I ~ ^ A % f 6 a p a 9 p * k ^ K Y Y P G G F A K ~ w A E P I ~ K P ",
"I Y Q t k I Z N J A Y z p Y ! Y ! ! Q Q F 8 E G U P U F U u V ) Y R P F A G G C Q ~ 6 C ! Y P P U U ",
"A D R s n ^ Q ! Q ! ~ f 6 ~  .^ ` ` Q R Z p ^ U A Z Y Y ( c c ^ Q Y J Z A G G A U Q e G E I U R R R ",
"I G Y w q g t e z D c - + k k v V G N A k t Y Z Z A P K E k w Q Y Y P A A J P G J E s U P F E ^ R R ",
"J A E s p c f k p f q y a 4   y l M p k 9 9 P M K J P F U b t ..Y Q R P G U R Q ~ Q p Y I J R P R Y ",
"J Q U p E  .Q ! ( ^ ` ` ` Q t E U P I P n 4 P P U P P P R c q Q [ [ ' [ } ] } ( ] P e K Y K Q ~ Q ! ",
"u p y - n ^ R Q P E U P Y Q y P V K Y G b t E D G R E G U v - w b n M N n N n A g q o t a 9 a a k l ",
"N k f 1 k K D A G Y K P Q ( g Y G K U Y F t Y U G K U Y ( n > k c z h f w t % 5 l C V G c : c J c c ",
"Y Z V a g A V n U U J Q ( Q u U ! R Y E G 5 G Q Y Y E U Y k 6 Y Q U F K K Q t c U U I Q U 8 A E F J ",
"I V V t 5 f f k C F V N J N 6 n n J G b p O f k a n N u p t 5 G G D M A G ) a c G V V P Y 3 n P D J ",
"E J Z t > g g c w h p * s g q f l V V n f . e h e a s t c g 8 D P P D Z C I f k P G U ) ^ 6 V Q A J ",
"Y P A f p U G J A Y G q U Q Q Y P J G Q Y 4 n Y U F A A Q V w J G K G A F I n u F V c Z G q M D A J ",
"U P V f l ( A M R Y F 5 Q J G Z A P F D J w A U A J D c F V y A K P D F I U n & 6 s p p 9 + c P P Y ",
"! Q J w N E G D G R P t Y G P U R P R R Y 9 J U P P Y P P F y R J K I Y J Q u k ! U Q ^ U > k I R E ",
"C N l < n ^ I K G Q P u E K Y Y E U Q Q Q w P E I I E U I G u E P I R Y P ^ p c ~ J P Q I 1 k G N N "
};
