/* XPM */
static char *f5931b03af64465dcd67a9f272b1c197sVr3dz9Ltps6Civm[] = {
/* columns rows colors chars-per-pixel */
"50 50 136 2 ",
"   c None",
".  c #030303",
"X  c #090707",
"o  c #050608",
"O  c #0B0B0C",
"+  c #0F0F10",
"@  c #131313",
"#  c #13161A",
"$  c #1B1B1C",
"%  c #21211D",
"&  c #1A1D22",
"*  c #1E2025",
"=  c #252525",
"-  c #282726",
";  c #292926",
":  c #272728",
">  c #272828",
",  c #2B2B2A",
"<  c #312E26",
"1  c #302F28",
"2  c #35332A",
"3  c #38362D",
"4  c #3E3A2F",
"5  c #2F3031",
"6  c #333334",
"7  c #383737",
"8  c #3A3935",
"9  c #36363A",
"0  c #3B3B3B",
"q  c #433E2E",
"w  c #45402F",
"e  c #464232",
"r  c #4B4631",
"t  c #4E4835",
"y  c #42423F",
"u  c #544D34",
"i  c #584F35",
"p  c #514B38",
"a  c #575035",
"s  c #595136",
"d  c #5A533A",
"f  c #5F583C",
"g  c #605739",
"h  c #434343",
"j  c #4A4A47",
"k  c #4B4B4B",
"l  c #505050",
"z  c #515050",
"x  c #515151",
"c  c gray32",
"v  c #535352",
"b  c #525353",
"n  c #535353",
"m  c gray33",
"M  c #555555",
"N  c #565656",
"B  c gray34",
"V  c #555555",
"C  c #585757",
"Z  c #585858",
"A  c gray35",
"S  c #595A5A",
"D  c #5B5B5B",
"F  c gray36",
"G  c #5D5D5D",
"H  c #5A5A5A",
"J  c #635C48",
"K  c #6A6142",
"L  c #756B47",
"P  c #736848",
"I  c #796F49",
"U  c #606060",
"Y  c gray38",
"T  c #626262",
"R  c gray39",
"E  c #646464",
"W  c gray40",
"Q  c #666666",
"!  c #686867",
"~  c #6C6C6C",
"^  c #6D6D6C",
"/  c #6D6D6D",
"(  c gray43",
")  c #6F6F6F",
"_  c #6B6B6B",
"`  c gray44",
"'  c #717171",
"]  c gray45",
"[  c #737473",
"{  c #747474",
"}  c #747574",
"|  c #747475",
" . c gray46",
".. c #767676",
"X. c #767776",
"o. c #777777",
"O. c #747474",
"+. c gray47",
"@. c #7C7C7C",
"#. c #7B7B7B",
"$. c #80807F",
"%. c #838383",
"&. c #848484",
"*. c #868686",
"=. c #858586",
"-. c #888887",
";. c #888887",
":. c #888888",
">. c #898888",
",. c #898989",
"<. c #8A8989",
"1. c #8A8A8B",
"2. c #8B8B8B",
"3. c #8E8E8E",
"4. c gray56",
"5. c #8C8B8B",
"6. c #90908F",
"7. c #90908F",
"8. c gray57",
"9. c #929292",
"0. c #939393",
"q. c gray58",
"w. c #959495",
"e. c #959595",
"r. c gray59",
"t. c #979797",
"y. c #959595",
"u. c #989898",
"i. c gray60",
"p. c #9A9A9A",
"a. c #9B9B9B",
"s. c #9B9B9B",
"d. c #A2A2A2",
"f. c #ABABAA",
"g. c #B5B5B5",
"h. c #B9B9B9",
/* pixels */
"                                                                                                    ",
"                                                                                                    ",
"                          & * , - X . X . X X . . . X . o . o . % 2 6 7                             ",
"                      q e f d - 0 ` ......| ........| ....[ | ..C # 4 e r g J                       ",
"                      r s L L % h 0.r.0.r.0.r.0.r.0.0.r.r.r.0.i.~ . e a s I K                       ",
"                    6 r u f s % 7 T E E R R R R T R R E R R E E k # e a u f u >                     ",
"                    = r s u r - , j k k k k k k k k k k k k k k 0 & w a u u r = 2                   ",
"                  ; - r i u r - 6 x m x x m b n x m x m m m m m y $ w a u s r : >                   ",
"                $ = = r i u u - 5 z c z n x n x m m m x m x x m h $ w a u a r > = O                 ",
"                k = : r i i r - , h h y h h h h h h h h h h h h 7 & q a u a r = 7 G j               ",
"              t.+.O : r i u u ; = & & & & $ $ & $ & $ & $ & & $ = * q a u s t X m i.) @             ",
"            j 0...@ : r i u t = : q q q q q q q q 4 q 4 q 4 q w 3 & w a u u t O b 0.) @             ",
"            0 t...O : r i i u = 1 i i u s u s s i s u i a a a a w & e a u i t X m i.~ . 6           ",
"          ) ) ) A = : r i i u = 1 p i p u u u u u a u u u u u a 4 & q a u i t $ h ` ) ` x           ",
"        k 0.:.k 0 : = r i u u = < i i u s s u s u u u u u u u a q & w a u u r = 0 h ) i.E >         ",
"        k 7.*.b j = = r i u t - ; 2 2 2 2 2 2 2 2 2 3 2 3 3 3 3 2 & w a u s r * 0 k ) u.T X         ",
"        0 5.*.x h - = r s u u ; = = = & = * = = = & = = & = = & = = q a u a r = 7 k ) r.T .         ",
"      @.@.T F m h % = r i s r ; = ; - - - ; = = - - - ; - - - - > % q a u a r % 7 l Z U ` %.m       ",
"      0.4.k j n h = - r i i r ; = = = - = - ; = = = - = ; = = = - * q a u a r * 7 m x h +.i.A       ",
"      :.2.m x x h = - r i u u ; = = - = - = = = = - = > = = ; = - * w a u a r = 7 m m k ..r.Z $     ",
"      ,.5.x x m h = = r i i r ; = - = = = - = - = = = - = = - = - * w a u a r = 9 m m k +.e.A       ",
"      ,.5.x k h 7 - = r i i u - = - - = - - - - ; - - = > ; - ; ; * w a u u r = 5 y k k +.u.m       ",
"      ,.2.b h $ = - = r i u u ; = = * = = * = & = * = * & = = & - * q a u a r > = $ y k X.r.Z       ",
"      ,.2.x j - = - = r i i r ; , q q q q q q q q q q w q q q e 3 & w a u a r > > = 0 k X.r.Z       ",
"      ,.5.m j = = = = r u i r - 1 u a u i i s u u a u a a a a a q & e a u a r > : = y l ..r.m       ",
"      ,.>.7 6 = - = = r i u u - 1 u a u u u u u u u u u u u u a q & e u u a r = = : 6 , ) r.A       ",
"    8 ,.*.= $ : = - = r i i r ; 1 u u p u u u u u u u u u u u a q & w a u a r > : = , . _ r.m :     ",
"    3 ,.*.= = - - - = r i i r ; = 2 2 2 2 2 1 1 2 2 2 1 1 2 2 2 , * w a u a r = - > , . _ r.C =     ",
"    3 2.*.= = = - = = r s u u ; - = = * = = = = = = = = = = = & = = q a u u r > : ; , . _ r.m       ",
"    3 ,.*.- = = = - = r i u t ; = = = = = ; = = = = = > = = = - = * q a u s r > : > , . _ r.m       ",
"    3 ,.>.> ; = - = - r i i u = = = = > = : - = = = - = > = - = = = q a u s r - : > 6 @ _ q.m       ",
"    3 5.,.+ $ = = - - r i u u ; = ; = = = - = : = = = - = = ; = = = q a u a r - : > > . ~ s.A       ",
"    3 +.+.h y = = = = r i i u - = = > > = = = = - = = = = = > = ; * w a u a r > > - 7 y E %.l       ",
"    3 = 0 5.#.$ : > - r i i u - = > = = - > - - - - = = - ; = ; - * w a a a r > , O G 0.U O         ",
"      = 7 5.$.$ > > = r i u r ; = = = * = = * = * = = = * = = * = * w a t a r > , + U e.T .         ",
"      ; 0 0.@.$ - > = r i u u = ; w w w w w w w w w w w w w w w 3 * w a a a r > , O U e.T @         ",
"      7 0 5.@.O % ; - r u u u = < a a a a a a a a a a a a a a a w $ w a u a r > : . S t.T @         ",
"        0 j m @.T $ = r s i u = < a a a a u u u a u a a u a a a 4 & w a u a r $ j #.! j y           ",
"          . h i.+.+ , t a a t - < t u u u u u u u u u t t u u a 4 * w a u s u + m i.) .             ",
"          = h r.... - % % r t - > < , < < , , , , < < < < < , 1 , * q a r % ; . b t.) @             ",
"          2 h ,.) = 6 5 6 t p 6 , = * = = * = = = = = = = = = = , , e d p 6 6 = b 4.! $             ",
"            0 = Z ,.,.f.f.0 . @ @ : : = = = = = = = = = = = = : & . @ . 0 f.f.5.| , 0               ",
"              X l *.*.d.d.B h j h , , , , , , , , , > , , , , , 0 j j h x d.d.,.~ =                 ",
"                        7 d.h.h.s.. . O . . . . . . . . . . + . ..h.g.h.d.6                         ",
"                          6.d.d.4.B S S A B S B Z A A A A A S m +.d.s.d.0.                          ",
"                                k g.h.h.h.h.h.h.h.h.h.h.h.h.h.h.%.#                                 ",
"                                B g.h.g.h.h.h.h.h.h.h.h.h.h.h.h.*.                                  ",
"                                k ! ! ! ! ! ! Q ! ! ! E ! ! ! _                                     ",
"                                                                                                    ",
"                                                                                                    "
};
