/* XPM */
static char *_5926c10920941bbd49a66a3f02fe94aNAyTtZ5EHppaWVon[] = {
/* columns rows colors chars-per-pixel */
"50 50 223 2 ",
"   c None",
".  c #000101",
"X  c #0A0202",
"o  c #000A06",
"O  c #00040B",
"+  c #02090B",
"@  c #0A0A09",
"#  c #090A05",
"$  c #120303",
"%  c #1B0201",
"&  c #1C0C0B",
"*  c #170A09",
"=  c #05120D",
"-  c #1B130D",
";  c #060912",
":  c #001412",
">  c #08191E",
",  c #1D1611",
"<  c #1A1814",
"1  c #240200",
"2  c #2B0C0D",
"3  c #270809",
"4  c #390100",
"5  c #320E0E",
"6  c #3A0806",
"7  c #2A120D",
"8  c #3E110D",
"9  c #32120E",
"0  c #281713",
"q  c #341411",
"w  c #3A1511",
"e  c #2F0F12",
"r  c #00002E",
"t  c #172227",
"y  c #0D2731",
"u  c #292928",
"i  c #322928",
"p  c #373839",
"a  c #31332F",
"s  c #450705",
"d  c #570000",
"f  c #4B120D",
"g  c #43120D",
"h  c #4B1612",
"j  c #5C1911",
"k  c #561712",
"l  c #59190F",
"z  c #63170C",
"x  c #77190C",
"c  c #6B1B12",
"v  c #661B16",
"b  c #741D12",
"n  c #7D1E11",
"m  c #700000",
"M  c #5C221A",
"N  c #6B2218",
"B  c #7C2115",
"V  c #433A33",
"C  c #483F37",
"Z  c #45392C",
"A  c #7A2B22",
"S  c #4B453D",
"D  c #52493E",
"F  c #57473C",
"G  c #464546",
"H  c #554E43",
"J  c #5B4C42",
"K  c #5D544C",
"L  c #595248",
"P  c #565654",
"I  c #6C5B4E",
"U  c #64564A",
"Y  c #725E4E",
"T  c #6B5F53",
"R  c #6E6358",
"E  c #796858",
"W  c #75644E",
"Q  c #646465",
"!  c #776D63",
"~  c #7C746D",
"^  c #841C0E",
"/  c #821F13",
"(  c #832215",
")  c #8B2519",
"_  c #892518",
"`  c #912719",
"'  c #93291D",
"]  c #9D2B1D",
"[  c #982514",
"{  c #A12C1E",
"}  c #A7291A",
"|  c #B32E1C",
" . c #B1301F",
".. c #992C23",
"X. c #933327",
"o. c #A22E22",
"O. c #A92D21",
"+. c #AC3223",
"@. c #AA332A",
"#. c #A63429",
"$. c #B43323",
"%. c #BB3525",
"&. c #B4362B",
"*. c #BC362A",
"=. c #BD392A",
"-. c #B43A2D",
";. c #BE3C31",
":. c #B53D35",
">. c #B52F28",
",. c #C23624",
"<. c #CC3722",
"1. c #C43827",
"2. c #C5392A",
"3. c #C93B2B",
"4. c #C93827",
"5. c #D33826",
"6. c #CC3E32",
"7. c #C43E32",
"8. c #D73F36",
"9. c #BC433A",
"0. c #BD4137",
"q. c #CA443A",
"w. c #D24236",
"e. c #D5423B",
"r. c #DB4B3E",
"t. c #D94639",
"y. c #E54C3D",
"u. c #B84B46",
"i. c #BC524C",
"p. c #B4514C",
"a. c #BA5A55",
"s. c #826D58",
"d. c #86715D",
"f. c #96765A",
"g. c #B8605C",
"h. c #887766",
"j. c #967C66",
"k. c #897D71",
"l. c #B56460",
"z. c #C34C45",
"x. c #C94A43",
"c. c #DC4E42",
"v. c #C2524C",
"b. c #D1524A",
"n. c #D15147",
"m. c #C95A55",
"M. c #E74E41",
"N. c #E65546",
"B. c #D2625F",
"V. c #CA6763",
"C. c #9B836B",
"Z. c #95816B",
"A. c #8E8277",
"S. c #9A8B7B",
"D. c #968676",
"F. c #A2856C",
"G. c #AB8C6C",
"H. c #A5886A",
"J. c #A98D72",
"K. c #A48C72",
"L. c #AD9175",
"P. c #A3927D",
"I. c #AB947D",
"U. c #B59675",
"Y. c #BB9973",
"T. c #B5997B",
"R. c #BB9C7B",
"E. c #B39779",
"W. c #B5926D",
"Q. c #C1A27F",
"!. c #898888",
"~. c #948D86",
"^. c #9B9792",
"/. c #A59583",
"(. c #AB9682",
"). c #AC9B88",
"_. c #B39C82",
"`. c #B89E84",
"'. c #B49F8A",
"]. c #AA9E95",
"[. c #BDA283",
"{. c #B5A28B",
"}. c #BCA48A",
"|. c #BDA991",
" X c #B5A698",
".X c #A2A19A",
"XX c #B6B0AA",
"oX c #C2A584",
"OX c #C6A986",
"+X c #C2A78A",
"@X c #C6AB8C",
"#X c #CAAC8C",
"$X c #C4AD93",
"%X c #C8AE92",
"&X c #CCB294",
"*X c #C4B19D",
"=X c #CDB59A",
"-X c #CFB99C",
";X c #C6B097",
":X c #D2B695",
">X c #D1B79A",
",X c #D3BA9D",
"<X c #D0B28F",
"1X c #C8B7A5",
"2X c #D4BDA2",
"3X c #D8BFA2",
"4X c #D4BEA8",
"5X c #C2B9B1",
"6X c #DAC1A4",
"7X c #D6C1AB",
"8X c #DAC4AD",
"9X c #DAC6B2",
"0X c #DDC9B3",
"qX c #DACCBA",
"wX c #D4C3B2",
"eX c #CDC3B7",
"rX c #E2CDBA",
"tX c #E4C9AC",
"yX c #DAD3C8",
"uX c #DDD9D3",
"iX c #CDCAC3",
"pX c #E3D3C3",
"aX c #E0D6CB",
/* pixels */
"                                                                                                    ",
"                                                                                                    ",
"                                            b.n.b.m.                                                ",
"                                        x.3.@...o.@.*.:.v.V.                                        ",
"                                      *...; . . . . . & v #.x.B.                                    ",
"                                  m.>.k + + 1 % q 0 & . @ . g 6.b.                                  ",
"                                a.O.O : 1 . ; O . . . . . 0 . O 3.b.                                ",
"                                } . : . . R _.|.k.K C.j.J . 3 . O 3.m.                              ",
"                              #.4 : . S /.%X,X2X>X%X@XR.L.E . % . & *.                              ",
"                            p.x : . p }.,X>X>X&X%X%X@XR.G.Y.h.. 7 . g -.                            ",
"                            { 9 o . L.,X:X:X>X=X>X>X=X&X=XR.W.J . 9 . / v.                          ",
"                          9.^ : . D.3X=X&X&X&X&X&X>X&X=X&X[.R.J.u . + 2 &.                          ",
"                          | 7 . J }.~  X2X>X-X=X=X&X&X&X>X3X*X/.h.. @ O 3.b.                        ",
"                        0./ + . K Q ! Q !. X,X2X,X,X2X2X X~.Q L I V . < 0.r.                        ",
"                        | 9 . u G *XrX=Xk.r ~.4X7X7X4X~.y K 1XqX~.t o 2 ;.y.g.                      ",
"                      9.) + X i D.0X2X,X3X/.{.7XwX7X4XA.k.,X2X8X9X! O w =.M.x.                      ",
"                      $.f O X D {.,XT.G.L.@X<X<X4X4X&X&X,XQ.W.@X6XP.t 8 &.r.e.                      ",
"                    v.[ o * . W }.R.J.`.J.j.j.Q.>X4X#XY.G.H.G.G.[.T.S 4 $.w.N.                      ",
"                    &.z . - . U U. XyXaXqX$XF.T.>X2XOXH.K.*XqX1XU.U.D 4 =.w.y.i.                    ",
"                  V.} @ f 7 . S G.eX.XP iXqX`.U.8X8XoXf.1XyX~.5X=XH.y s 1.1.N.q.                    ",
"                  :.x 8 _ h . F `.5Xp . .XuX(.OX7XrXOXS.uX.X. P qXH.u s 3.7.c.q.                    ",
"                  } 5 c ( M . d.U.XX!.. ].*X&X@X7X9X,X$XeX^.. !.7XG.G 1 =.c.N.q.                    ",
"                u.^ 2 ` ' l . ).oX'.5X1X%X%X8X@X8X7X3X1X+X4X XXX{.@XR . @.r.N.w.                    ",
"                } f l $.&.1 a |.<XG.D.#XR.2X8X[.2X7X2XpX}.R.6X/.R.:XZ.. o.w.N.t.                    ",
"              i.[ * ) 1.#.. U -X,XE.W I.=X6X>XU.1X6X>XpXpX$XI.! _.>XL.X ` ,.N.r.                    ",
"              -.n f  .4.X.. R ,X,X;XD.-X2X,X@X}.9X0X-X9XpX0X4XZ.2X,XI.i / %.c.y.a.                  ",
"              @.n _ %.1.A . T >X6X|./.7X-X&X#X,XrXrX4X,X6X,X,XS.=X>XU.i x  .w.y.a.                  ",
"              o.n { 3.$.M . V }.,X).{.,X@X=X>X,X4X4X2X>X&X,X2XP.}.:XC.> z } 3.t.u.                  ",
"              o.B $.4.O.8 M . C.Q.Z./.#X+X+Xd.L.:X:X+Xd.T.=X6X/.).&Xs.. l { 4.<.v.                  ",
"              -. .3.3.] f ) d L Y.j.K.OX#X[.. X f.f.F . E.,X6X/./.oXZ . h ' 2.<.v.                  ",
"              9.5.c.3.) z ` o.1 C.C.S.<XT.H . S D L i t ~ =XtXP.(.C.. = g ` 1.<.i.                  ",
"              i.r.c.,.) c ] 2.d L _.E d.> I {.I.{.T.}. XK G S.! L.F . = 8 _ =.4.a.                  ",
"                y.r.,.` x { 4.c . J.F.J {.,Xh.J F J U `.6XI.D Z.C.. - . 5 ( *.<.                    ",
"                q.c.,.' b o.3.N . Y R.&X6XC.j.oXR.+X|.h.@X3X#XR.U . - . 2 B %.4.                    ",
"                v.y.3.` b { 1.N . Z R.OX&X+XR.Y.Y.W.Y.@X=X%XR.J.i . @ 2 e b %.1.                    ",
"                  t.6.[ b  .&.B g . K.OXOX,XOX}.@X=X$X&X,X&XQ.j.. @ & e 2 b %.,.                    ",
"                  0.5.{ b +.$.b X.m E oXQ.@X=X6X2X2X9XtX&X[.Q.E . - 2 h 8 c %.,.                    ",
"                    <.&.b $.+.x -.m S U.Q.&X&X<X>X2X3X4X>XOXE.C . , f B n B %.1.                    ",
"                    =.4.] %.%.+.o.z . d.R.R.R.R.+X%XOXoXOXR.d.. * w ( { ( _ *.1.                    ",
"                    a.5.3.1.1.1.] _ n . D T Y U F J I Y I F . . & v >.%.n ) 1.*.                    ",
"                      4.w.1.1.1.*.%.+.8 . . . . . . . . . . $ + f o.4.1.) ' 5.i.                    ",
"                      u.t.w.%.1.6.3.$.k = 0 - 0 < 0 < 0 , , @ . _ 1.=.1.%.,.;.                      ",
"                        7.e.6.,.8.e.*.v . X . . . . . . . $ . j &.,.=.1.4.1.                        ",
"                          5.t.6.8.e.6.n . $ O . # . . . X . $ o.4.1.4.<.%.                          ",
"                          a.5.e.e.e.8.' . $ . . . . . @ * . B 4.1.1.<.0.                            ",
"                            u.5.6.c.8.@.@ @ @ @ # . . * . 2 &.4.<.=.g.                              ",
"                              l.7.5.5.*.4 . . . . . @ $ . ..5.1.i.                                  ",
"                                  a.:.u.p a u < @ . . . 0 -.u.                                      ",
"                                                                                                    ",
"                                                                                                    "
};
