/* XPM */
static char *_b07fdcee6724f3899f6710cd6f3ef2dmT48IoOAvIUJhw1h[] = {
/* columns rows colors chars-per-pixel */
"37 50 241 2 ",
"   c #020202",
".  c #0C0101",
"X  c #020902",
"o  c #040409",
"O  c #0A0109",
"+  c #020B0A",
"@  c #0D0B06",
"#  c #140101",
"$  c #1B0100",
"%  c #130B04",
"&  c #1B0A03",
"*  c #18090A",
"=  c #0B1107",
"-  c #161308",
";  c #1E1613",
":  c #230000",
">  c #2B0100",
",  c #250C02",
"<  c #2A0A03",
"1  c #270709",
"2  c #320001",
"3  c #3B0101",
"4  c #37060A",
"5  c #271407",
"6  c #37170E",
"7  c #380A11",
"8  c #241917",
"9  c #391917",
"0  c #352816",
"q  c #2D2A17",
"w  c #3A3028",
"e  c #450101",
"r  c #490202",
"t  c #47080B",
"y  c #520203",
"u  c #590909",
"i  c #49160E",
"p  c #5B110E",
"a  c #5B0E11",
"s  c #5E0E19",
"d  c #481518",
"f  c #5A141C",
"g  c #551717",
"h  c #430C13",
"j  c #620304",
"k  c #680408",
"l  c #710100",
"z  c #7A0002",
"x  c #760908",
"c  c #680D11",
"v  c #770B15",
"b  c #661718",
"n  c #78151A",
"m  c #4A2D1A",
"M  c #6E231B",
"N  c #571D23",
"B  c #6C1B22",
"V  c #751F28",
"C  c #5A2529",
"Z  c #463428",
"A  c #4D3B33",
"S  c #5F3133",
"D  c #543127",
"F  c #682629",
"G  c #792728",
"H  c #7E312F",
"J  c #782D32",
"K  c #6C3339",
"L  c #673437",
"P  c #6A2E33",
"I  c #4D4531",
"U  c #564537",
"Y  c #5D442E",
"T  c #644937",
"R  c #64553E",
"E  c #744B39",
"W  c #793E45",
"Q  c #6D3C40",
"!  c #5B5C45",
"~  c #77464A",
"^  c #675847",
"/  c #775A48",
"(  c #7C4E51",
")  c #685550",
"_  c #785853",
"`  c #6F4C4A",
"'  c #6C654E",
"]  c #77634D",
"[  c #686852",
"{  c #776A57",
"}  c #6B785A",
"|  c #7D6A63",
" . c #7B7462",
".. c #830001",
"X. c #8B0606",
"o. c #980B0B",
"O. c #87171D",
"+. c #98171B",
"@. c #80130E",
"#. c #A80E15",
"$. c #A51918",
"%. c #B7121D",
"&. c #9A231D",
"*. c #B1211D",
"=. c #881B23",
"-. c #9E1920",
";. c #A61A22",
":. c #BC1B23",
">. c #872728",
",. c #97252B",
"<. c #89312D",
"1. c #872B34",
"2. c #952732",
"3. c #893334",
"4. c #983638",
"5. c #97342F",
"6. c #A3242C",
"7. c #AB222B",
"8. c #A92426",
"9. c #BB2B2B",
"0. c #B82627",
"q. c #AA2C33",
"w. c #A42D39",
"e. c #A52B33",
"r. c #B52B35",
"t. c #A7383B",
"y. c #B83338",
"u. c #C41F26",
"i. c #C6242A",
"p. c #C32732",
"a. c #C43538",
"s. c #D32F37",
"d. c #A5413F",
"f. c #993742",
"g. c #873C47",
"h. c #A63B42",
"j. c #B93844",
"k. c #D22F40",
"l. c #CB3743",
"z. c #D93947",
"x. c #DB3E51",
"c. c #824B51",
"v. c #934C55",
"b. c #885257",
"n. c #914047",
"m. c #B6484A",
"M. c #B8434F",
"N. c #856B59",
"B. c #8A7459",
"V. c #90755A",
"C. c #B65661",
"Z. c #876D62",
"A. c #887766",
"S. c #947C6B",
"D. c #957163",
"F. c #987D74",
"G. c #8E746A",
"H. c #C74748",
"J. c #D54549",
"K. c #D84A53",
"L. c #D65358",
"P. c #C94B53",
"I. c #E24F57",
"U. c #C05766",
"Y. c #8A845D",
"T. c #89836F",
"R. c #988369",
"E. c #988A75",
"W. c #908F74",
"Q. c #A38C7A",
"!. c #A78876",
"~. c #A5937A",
"^. c #AB927D",
"/. c #A99677",
"(. c #B4947D",
"). c #A5876F",
"_. c #AFA17A",
"`. c #9E9683",
"'. c #9C8A80",
"]. c #A58C83",
"[. c #AC9C85",
"{. c #A79989",
"}. c #BB9C8B",
"|. c #B69A86",
" X c #B89C93",
".X c #B7A689",
"XX c #ABA392",
"oX c #ADA990",
"OX c #B4A593",
"+X c #B4AA95",
"@X c #BDAA93",
"#X c #BCAC9A",
"$X c #BCA596",
"%X c #B9B398",
"&X c #A8A48D",
"*X c #BDB4A2",
"=X c #C5988C",
"-X c #CB9D95",
";X c #D1988F",
":X c #C5A78D",
">X c #C9AB94",
",X c #C3AC9C",
"<X c #CBAB9B",
"1X c #C4A695",
"2X c #D3AC9C",
"3X c #D5AC99",
"4X c #C3B396",
"5X c #C3B49C",
"6X c #CBB49C",
"7X c #CCBC9C",
"8X c #C9B698",
"9X c #D5B59C",
"0X c #C6ADA1",
"qX c #C5B5A2",
"wX c #CBB4A2",
"eX c #C4BBA4",
"rX c #CCBBA3",
"tX c #CBBDAB",
"yX c #C3BAA9",
"uX c #D2B6A4",
"iX c #D4BDA3",
"pX c #DABCA3",
"aX c #D3BCAB",
"sX c #DAB8A8",
"dX c #D8B4AC",
"fX c #E8B9A9",
"gX c #E6B7AE",
"hX c #D0C99F",
"jX c #CBC4A9",
"kX c #D3C2A4",
"lX c #DBC4AC",
"zX c #D5C7AB",
"xX c #DBCBB5",
"cX c #DAC6B7",
"vX c #D6DBBB",
"bX c #E2C5AB",
"nX c #E5C8B5",
"mX c #E5D2B9",
"MX c #F0DBBE",
"NX c #DDD4C1",
"BX c #FBC5C3",
/* pixels */
".     X X X       +     @ # : > : $ : > > > 2 : # .   X   X X + o         ",
".     X X X     +   - o . 1 > h ~ ( W K K h : : # & .       o +   o   o . ",
"  .         X X   .   * $ $ S _ ~ Q ( b.c.c.c.S N # # 1 $ #               ",
"            X   * . 1 1 4 K ` d > > : : > 4 D ( ` _ > : 7 $               ",
"                . $ : 4 ~ L # $ < 9 6 & 6 , $ # 0 _ b.t : 1 O   X         ",
"    . . .     . * $ d v.N $ < & 5 # . % # . # 0 O . ( b.t > .             ",
"    O .     # # # 4 K s > < & % { E.! @ R Z.I   = 5 $ W v.: . =           ",
"            . $ $ L f 2 : < U `.eXzXjX].1X}.E.' X @ # > W ~ # &           ",
"o o   +   . # # C N : 4 # Z.tX*XqX7XsX<X=X=X=XE. .  & $ 3 g.g $ &     @   ",
"o   o     . # 7 K g < # ^ tXqX%XrX1X>X2XgX;X-X1X{.[ . 6 : g n.3 # # .     ",
"    +   @ # # C N 2 # Z OXtXqXtX4XiXgX2XfX3X2X$X{.T.q . < > F P $ $ #     ",
"o       O . d Q d $ $ XXXX%XtXrXkX.X-X3X3X3XrX*XeX&X`.  # > F f.t $ $ . X ",
"      . # $ K C : # A G.. {  X,XrXhXrX6X%XjXyXjXXX) [ !   & J C.J : : .   ",
"o   . $ $ 7 W d # 5 5  .*XXXA { .X4XkXlXjXjXW.I U $X .q X < k C.v.> : #   ",
"X   # : 3 P P > # 5 U *XcXcX$X` E bXpX6XvX} % | gXBXNX{ O $ V j.C.t : $   ",
"o   # $ r g.h # 5 , T.NX0X0XwX0X8X9XpXnXjX%X+XdX;XdXnX+X0 : 2.j.C.J : $ . ",
"  % # $ G 1.1 . . A oX%XS.F.F.E.(.:X9XbX9X:X<X[.Q.].qX@X^ : O.y.L.d.$ # % ",
"O . # > J b $ ; # ) `.oX>X2X1X^.B./.9X:X3X=XS.Q.[.,XQ.[.B.: ,.7.I.d.> . # ",
"  * $ i H y 1 7 $ w `.{.mXlXcXxX/./.8X9XsX!.F.tXxXjX+X.XB.: 5.;.J.m.t # # ",
"  ; : F G e t h # Z {.6XE.# {.xX@X_.4XmX2XD.,XNXZ.^ yX+XR : ,.r.H.H.g $ : ",
"  # t 3.u e b f : U E.yX] % A.vX.X.XkXmX<X].tXtX. O #X#X^ : >.j.z.L.M $ : ",
"O # G >.3 u n F # G.+X]..X0 &XoXeX4XzXzXsXsX#XtXZ ^ qX#XA.$ n P.I.L.G $ $ ",
"# > 1.x r M G s . XX X.X[.mX+XeXzX%X4XzXaXnXOXqXeX5X$X$XE.: k y.I.L.<.> $ ",
": F =.y j 3.f.2 9 XXaX~.{ .X|.qXhX4X.XmX9XmXcXQ.aXQ.R.qX@Xi c 6.I.K.3.> # ",
"3 1.n y @.5.3.: U *XcX.X^ /.sXgXkX(.8XkX9XnXmXxX$XN.!.uX4XE y 6.J.L.5.3 # ",
"y 1.v j $.t.H : ) *XzX#X~.6XdX2X>X_.kXMXpXsXkXlXbX!.}.lX@X/ r ,.y.L.t.e % ",
"v 2.x X.8.y.M $ U $XxX@XR.>XbXdX>XkXlXnXlXpX7XnXbX(.(.iX.X/ e ,.8.K.m.r . ",
"v =.l +.*.8.u > 6 ].9X.XR.kX1X<X6X7XiX4XnX9X1X@XnX=X).lX[.Y 3 @.+.a.t.u # ",
"k n @.*.0.*.j p > D.|.R./.8XQ.wXD.A.5X6X<X] E.qXaX XG.yXW.6 3 c ;.y.e.p # ",
"u &.&.a.*.$.j n r S ^.B.B.1XrX+XY . ^ W.U # A.%XcX0XS.+X[ % 4 c 8.9.6.c # ",
"r <.d.J.i.o.l O.1.3 V./.V.8X&X! # A ^ U U . Z XXaX0X'.XXw . > u 6.9.7.c # ",
"> G H.J.9.o.z O.h.r m /.E N.5 I {.{.{.XX{.+XT.o G.G.|  .  @ > u -.9.q.u . ",
": g L.x.8.+...+.w.B # E.^.Y ).pX].D D Y m Y.hX@X] / '.Z @ & $ y -.y.<.2 . ",
"# 3 M.J.7.X.X.#.q.n : I ].1XnX(._ 1X.X^.:XW.Y.hX7X}.F.* . . > a O.q.<.> # ",
"$ : f.P.r.X.X.$.y.j > , !.6X9X=X|.|.:X_._._._.9X1X X)   @ % 4 e +.7.>.> # ",
"* * B M.y.#...;.6.x p : A.4X|.9X9X:X_._._.hXbX9X}. Xw   - & 4 e +.r.>.2 $ ",
"# # 2 3.y.%.z $.8.z O.r / +X(.9X3X3X9XhXkXpX2X;X-X].%   & 5 t u +.r.>.2 $ ",
"  * # b r.0...*.9.z +.c m E.@X1XbX:XhXhXhXbXgX-X X|   % 5 g s k +.r.>.2 : ",
"  @ # 3 6.9.#.$.$.$.0.l 2 ] ,X}.!.:X%X%X4X<X-X2X].U # < d V n z $.q.>.2 $ ",
"    # > ,.7.9.0.9.i.#...u > U  .B.N.' [ { Z.Z._ Z O 1 t n 6.$...-.w.J > $ ",
"+   # > u q.H.9.*.i.i.*.=.i # . . . .   . # . . . # 2 j 7.p.#...,.f.b $ # ",
"o   # : e >.H.y.i.u.s.s.,.p , 5 8 8 8 8 8 8 ; 8 - $ y ,.p.i.i.$.t.B 2 $ . ",
"  X # $ > a 4.P.y.*.s.z.;.j $ %       O O       # : n y.u.%.p.q.3.3 $ #   ",
"o   . # : > b m.H.a.s.z.l.O.$         O O O o % # u 2.p.:.u.y.2.t : # @   ",
"o     . $ # 2 G 4.H.z.k.x.2.:     o   O o O . # 2 G e.;.y.j.G u : $ @   + ",
"        o . $ 3 G m.x.k.x.2.> .   o O O o O # : c t.j.7.5.b > $ $ .     + ",
"    o       . $ i >.l.k.k.w.i   @   O O o O * 4 2.j.r.=.p : .   %       + ",
".     X o     & : 2 v 7.f.3.m   @     .     1 C f.=.v e : # + o     + X o ",
"          X   . $ $ $ > d d #   o           * 9 d > : : # .               ",
"                . . . . $ # .           .   . * * # . .                   "
};
