/* XPM */
static char *_7a57a9d62bd4b80c74dea2b61e2203fWJdPGA2NnKV2mo3k[] = {
/* columns rows colors chars-per-pixel */
"50 50 180 2 ",
"   c None",
".  c #262B2D",
"X  c #2E2E2D",
"o  c #2D2C27",
"O  c #312F2B",
"+  c #322F26",
"@  c #2E302F",
"#  c #32312D",
"$  c #282E35",
"%  c #302F30",
"&  c #2E3134",
"*  c #2F333B",
"=  c #343333",
"-  c #393634",
";  c #353837",
":  c #3C3934",
">  c #32363C",
",  c #37393C",
"<  c #3B3B3A",
"1  c #5D3D22",
"2  c #443D33",
"3  c #433E3A",
"4  c #403731",
"5  c #5C3D31",
"6  c #613F21",
"7  c #454032",
"8  c #45403B",
"9  c #4A423B",
"0  c #584437",
"q  c #644535",
"w  c #6B493B",
"e  c #2E3646",
"r  c #2F394B",
"t  c #333741",
"y  c #323945",
"u  c #3B3E42",
"i  c #313B4B",
"p  c #3D4145",
"a  c #3B4352",
"s  c #454545",
"d  c #4A4644",
"f  c #43464C",
"g  c #4D4D4D",
"h  c #484A49",
"j  c #554D44",
"k  c #535259",
"l  c #524D51",
"z  c #654A47",
"x  c #654A49",
"c  c #66564C",
"v  c #765448",
"b  c #615A54",
"n  c #7E6156",
"m  c #565563",
"M  c #5E5D6B",
"N  c #585767",
"B  c #605D6C",
"V  c #64626E",
"C  c #6B6979",
"Z  c #686874",
"A  c #9F7F70",
"S  c #BFA23E",
"D  c #CDAC3D",
"F  c #B19A4B",
"G  c #B29E5A",
"H  c #BEA44C",
"J  c #BFA550",
"K  c #9D827A",
"L  c #A88675",
"P  c #AC8A7A",
"I  c #AF8977",
"U  c #B28E7D",
"Y  c #B5907B",
"T  c #BFAC61",
"R  c #CE865C",
"E  c #CF885E",
"W  c #D1855A",
"Q  c #C7AB48",
"!  c #CDB047",
"~  c #D3B64E",
"^  c #D6B94E",
"/  c #DABB4B",
"(  c #DBBB46",
")  c #CCB356",
"_  c #CCB45A",
"`  c #C0A958",
"'  c #DC8F62",
"]  c #DB916C",
"[  c #DE9165",
"{  c #CD8C74",
"}  c #E49566",
"|  c #E59669",
" . c #EB9D6E",
".. c #E79E76",
"X. c #C0AD66",
"o. c #2B5699",
"O. c #2E589B",
"+. c #2A5699",
"@. c #3C609B",
"#. c #1E57A2",
"$. c #1C5BAD",
"%. c #1F58A4",
"&. c #1F5DB0",
"*. c #2A5BA3",
"=. c #245DAC",
"-. c #295EAB",
";. c #2459A5",
":. c #285FB0",
">. c #1A61BC",
",. c #2B60AF",
"<. c #3D64A4",
"1. c #3362AA",
"2. c #3964AC",
"3. c #3562A6",
"4. c #2F62B1",
"5. c #2A61B1",
"6. c #2D66BC",
"7. c #2E68BF",
"8. c #3163B2",
"9. c #3167BB",
"0. c #3168BE",
"q. c #3B6CBC",
"w. c #4A6A9D",
"e. c #4565A2",
"r. c #4368AB",
"t. c #4968A7",
"y. c #416DB9",
"u. c #4271BE",
"i. c #5877BD",
"p. c #5175B8",
"a. c #1C66C3",
"s. c #2567C4",
"d. c #2A67C2",
"f. c #2768C6",
"g. c #2D69C4",
"h. c #2E6CC9",
"j. c #2669C8",
"k. c #346CC3",
"l. c #386EC3",
"z. c #316DC8",
"x. c #3E71C3",
"c. c #4272C3",
"v. c #5B7CC1",
"b. c #9E8483",
"n. c #878F9D",
"m. c #AA8B81",
"M. c #B59486",
"N. c #AB9D91",
"B. c #B4A28F",
"V. c #B5A493",
"C. c #BBA692",
"Z. c #BDA995",
"A. c #B3A59A",
"S. c #8692A6",
"D. c #8E96A5",
"F. c #8E97A8",
"G. c #8692A9",
"H. c #C1AA94",
"J. c #C0AE9C",
"K. c #C1B09E",
"L. c #E5BD8E",
"P. c #E8BE8F",
"I. c #E2BE96",
"U. c #F0C28F",
"Y. c #F3C795",
"T. c #F6CA97",
"R. c #F4CA9B",
"E. c #FCCD99",
"W. c #F8CB98",
"Q. c #FFD39C",
"!. c #E6C19A",
"~. c #E5C2A1",
"^. c #F7CBA0",
"/. c #FFD6A0",
"(. c #DAD9E4",
"). c #E4DFE9",
"_. c #E7E3EC",
"`. c #E6E6F3",
"'. c #F1EEF9",
"]. c #F1E9F0",
/* pixels */
"                                                                                                    ",
"                                                  C                                                 ",
"                                            - # = = = t                                             ",
"                                          V t * > * % -                                             ",
"                                  V - & # t +.*.6.8.> #                                             ",
"                                  m > * > e *.:.g.0.e t                                             ",
"                          Z < ; = > +.*.*.*.*.-.f.f.7.4.> :                                         ",
"                        V k > * * e *.=.-.=.-.-.u.u.z.7.r t                                         ",
"                < X = # @ > o.*.*.o.,.;.,.*.$.3.G G q.s.7.-.t # = = = <                             ",
"                % & > * & e *.5.,.,.;.,.*.,.3.w.Q Q p.l.z.6.r > * * X =                             ",
"                # * +.*.*.*.-.-.,.;.,.*.$.<.G H ! ~ _ X.u.f.9.9.g.8.* #                             ",
"                h y O.*.o.*.*.*.;.,.*.,.&.@.H D ~ ~ ( _ u.f.z.g.g.8.y s                             ",
"                    , > > * ; e *.,.,.=.$.<.H D ^ / ^ _ u.f.g.7.r -                                 ",
"                    = X # # # & +.*.;.o.;.@.F S ! ) ! J y.6.0.:.> #                                 ",
"                    = % # = @ & > ; > > > > : 7 7 7 7 2 , > > > % =                                 ",
"                    = # # # 2 2 @ # = # - # @ X % & % = # # # # = =                                 ",
"                    = O - 9 R R 9 ; @ o o o < ; ; ; - - ; ; < < ; < % =                             ",
"                    - = - 3 ' ' 9 < d s d d 3 3 9 9 g g 8 3 < ; < < @ =                             ",
"                    ; X , 9 ' ' 7 h (.`.`.(.c w E ] _.(.v 0 - @ # % O =                             ",
"                    f - - 9 R ' 9 k ).'.'._.n v } ..]._.n w - @ = = = u                             ",
"                        = % 4 3 L L M.M.Z.K.V.B.Z.H.K.J.B.B.: X                                     ",
"                        & % . : L U I U Z.Z.Z.Z.Z.Z.C.C.H.V.< &                                     ",
"                        % O o 4 L U P U Z.Z.M.U U U U U Z.B.2 #                                     ",
"                        t * * u K P P U Z.Z.U U U U U U Z.V.p *                                     ",
"                    < t +.*.9.9.3.e.P U Z.H.Z.C.Z.Z.Z.Z.H.A.3.+.* :                                 ",
"                  B > t -.:.g.g.=.1.b.m.A.A.H.H.H.H.H.Z.V.A.2.;.t >                                 ",
"                < > O.*.7.d.g.g.g.g.2.<.l.p.] } } [ } ] w.1.g.d.-.O.> -                             ",
"              N > e *.:.d.z.z.g.g.g.=.:.s.y.{ ] | | ] { <.$.g.g.:.*.e >                             ",
"            < t o.*.*.-.g.g.g.g.g.g.g.d.=.:.k.i.^.P.i.x.1.-.-.-.-.-.*.+.> <                         ",
"            O * *.:.-.:.g.g.g.g.g.g.c.y.e.<.a.c.~.~.c.a.:.-.-.-.-.-.=.*.* #                         ",
"            = * *.-.g.g.g.g.-.-.=.<.G ` ) T 2.=.t.t.-.-.g.g.g.g.:.=.-.*.> =                         ",
"            < > *.-.g.g.9.9.-.-.=.e.F D / _ e.=.$.=.3.1.k.l.g.g.*.O.-.*.> #                         ",
"            X $ #.&.h.6.r e *.-.=.<.) / / _ u.g.,.1.S.D.D.G.l.6.e e #.#.$ X                         ",
"            8 s e.r.z.g.* % +.*.$.<.J _ _ X.q.f.,.3.S.D.D.S.q.:.* & e.e.d 8                         ",
"            L.Y.R.~.x.&.t X > e *.,.q.c.c.u.z.g.,.,.q.l.l.q.r > X 8 I.R.Y.P.8 p                     ",
"            W./.E.Y.v.q.> O o * +.*.6.6.f.f.7.7.;.,.g.f.d.6.* + . 8 U.Q.Q.W.8 &                     ",
"          b W.Q. . .^.!.3 . = # > > p a *.-.-.=.=.;.,.*.5.*.* # . 2 [  .Q.Y.8 =                     ",
"          j R.E.' ' Y.P.3 X = # # # : , O.*.*.*.1.1.,.3.*.+.> # > 3 R [ E.Y.8 &                     ",
"          j Q.E.c 9 d 3 # X # # = # < < u u u f n.D.D.n.a , & =     - 0 R.W.8 &                     ",
"            P.P.      = % X # = = = < , u p , f n.F.D.S.h u & ;     u 3 P.P.8 h                     ",
"              b         = X # # O # : u 8.0.6.0.l.l.l.l.0.4.> =         9 8                         ",
"                        h = # = > > , a 7.h.6.7.g.:.g.g.h.6.t =         p p                         ",
"                          g # * +.;.9.0.h.7.e > > r *.-.f.7.* -                                     ",
"                          N = * O.3.9.9.7.8.> # O - +.3.9.8.e 3                                     ",
"                          B > O 0 q z z > t N N & % 5 q x x # -                                     ",
"                          V u : 6 6 q q = < M B , : 1 6 q q < g                                     ",
"                                = O = -     C C     = = = =                                         ",
"                                u = = <             u - - h                                         ",
"                                                                                                    ",
"                                                                                                    "
};
