/* XPM */
static char *_448e307c4a24571d71911071c531891H2JJhPG0WVitpajK[] = {
/* columns rows colors chars-per-pixel */
"50 50 209 2 ",
"   c None",
".  c black",
"X  c #000013",
"o  c #00001B",
"O  c #2C2500",
"+  c #2F2906",
"@  c #312A01",
"#  c #322D0C",
"$  c #342900",
"%  c #3C3301",
"&  c #3B350A",
"*  c #2E2A14",
"=  c #2D2C1D",
"-  c #322D14",
";  c #322D19",
":  c #00052B",
">  c #00142C",
",  c #011C29",
"<  c #002E34",
"1  c #033136",
"2  c #173131",
"3  c #2D2D25",
"4  c #252A2C",
"5  c #2C2D2C",
"6  c #212727",
"7  c #322E2B",
"8  c #312E26",
"9  c #32312E",
"0  c #393529",
"q  c #2C2E33",
"w  c #2A2F38",
"e  c #2E3134",
"r  c #2E333C",
"t  c #333333",
"y  c #3C3A35",
"u  c #32353A",
"i  c #3C3B3B",
"p  c #383738",
"a  c #2D312F",
"s  c #473F07",
"d  c #403816",
"f  c #663E00",
"g  c #403829",
"h  c #433C35",
"j  c #4D3B32",
"k  c #423B35",
"l  c #523E3B",
"z  c #5B3324",
"x  c #6E3F29",
"c  c #6D461A",
"v  c #494239",
"b  c #464139",
"n  c #57433D",
"m  c #6A4521",
"M  c #3D3D44",
"N  c #313642",
"B  c #2F3542",
"V  c #3F4048",
"C  c #2E4774",
"Z  c #2D4A7C",
"A  c #2E4874",
"S  c #314975",
"D  c #324C7B",
"F  c #3D537D",
"G  c #454447",
"H  c #574945",
"J  c #4A4B55",
"K  c #464857",
"L  c #514E56",
"P  c #53535A",
"I  c #5A595C",
"U  c #555255",
"Y  c #4E515B",
"T  c #735149",
"R  c #605C5C",
"E  c #5C5C63",
"W  c #545761",
"Q  c #494D71",
"!  c #4B517A",
"~  c #605E6B",
"^  c #686674",
"/  c #737279",
"(  c #8D7939",
")  c #9B684C",
"_  c #917149",
"`  c #A26E51",
"'  c #A67456",
"]  c #8F7969",
"[  c #97843D",
"{  c #BFA43B",
"}  c #CEAD2A",
"|  c #DEBE3A",
" . c #CEAE3E",
".. c #8F8048",
"X. c #B9A150",
"o. c #988778",
"O. c #9B8A77",
"+. c #A98D6C",
"@. c #AF8776",
"#. c #B08A79",
"$. c #B29372",
"%. c #DB8C5E",
"&. c #E58D5C",
"*. c #F09351",
"=. c #ED915C",
"-. c #C2A641",
";. c #C6A945",
":. c #CFB34E",
">. c #D5B84B",
",. c #C9B15E",
"<. c #D2B756",
"1. c #C1A859",
"2. c #D19E7E",
"3. c #D2946F",
"4. c #E19163",
"5. c #EB9665",
"6. c #EA9667",
"7. c #E1A77B",
"8. c #2E4C81",
"9. c #2D4F89",
"0. c #314E82",
"q. c #2E528D",
"w. c #335187",
"e. c #33538C",
"r. c #3A5689",
"t. c #355791",
"y. c #004BA5",
"u. c #0054AD",
"i. c #0A58A9",
"p. c #175AA9",
"a. c #0054B5",
"s. c #1F5DB0",
"d. c #255AA5",
"f. c #295BA4",
"g. c #255DAC",
"h. c #295EAB",
"j. c #345DA4",
"k. c #235FB1",
"l. c #1E62BA",
"z. c #2F60AC",
"x. c #3C64A3",
"c. c #3762AA",
"v. c #2760B2",
"b. c #2B62B4",
"n. c #2C65BA",
"m. c #2E68BF",
"M. c #2462B9",
"N. c #3365B6",
"B. c #3868B8",
"V. c #4F588A",
"C. c #51598C",
"Z. c #767480",
"A. c #426BB4",
"S. c #4372BD",
"D. c #667CA7",
"F. c #657EB1",
"G. c #0064CB",
"H. c #1A68C9",
"J. c #2D6AC5",
"K. c #2D6CCB",
"L. c #266AC8",
"P. c #316BC4",
"I. c #356DC6",
"U. c #2072C9",
"Y. c #3471CE",
"T. c #4573C3",
"R. c #977D9E",
"E. c #7D829F",
"W. c #7D85A3",
"Q. c #6B83B5",
"!. c #6580B7",
"~. c #888886",
"^. c #8B8B96",
"/. c #8F9197",
"(. c #979897",
"). c #969185",
"_. c #B69C8A",
"`. c #B89C89",
"'. c #AB9297",
"]. c #BAA68D",
"[. c #B4A28E",
"{. c #B5A594",
"}. c #BDAA96",
"|. c #BCAD9A",
" X c #B9A796",
".X c #898CA7",
"XX c #989DA2",
"oX c #A59CA6",
"OX c #B29FA0",
"+X c #ABA5AE",
"@X c #D29F80",
"#X c #CA9C84",
"$X c #C2AE96",
"%X c #C3B099",
"&X c #D1A184",
"*X c #E9AF85",
"=X c #F2B584",
"-X c #F1C695",
";X c #FACC96",
":X c #FCCE9A",
">X c #F7CB98",
",X c #FFD99D",
"<X c #EFC494",
"1X c #FDD5A1",
"2X c #F7CFA1",
"3X c #D5CAC8",
"4X c #D2C9C8",
"5X c #EEECFA",
"6X c #FCF9FF",
/* pixels */
"                                                                                                    ",
"                                                                                                    ",
"                                            I E E P                                                 ",
"                                          * O O O O ;                                               ",
"                                      P K S Z S Z Z A K J L E                                       ",
"                                    ~ - = f.v.v.h.k.f.* O O @                                       ",
"                                E P K C Z j.h.h.f.h.f.q.e.q.w.K E                                   ",
"                              - O O 3 f.v.u.u.h.h.h.h.K.K.K.m.= @                                   ",
"                        I   Y S A A Z z.c.~.~.x.h.N.n.J.J.J.m.q.0.K E I                             ",
"                      t 5 O 3 f.v.v.v.u.p.-.-.i.u.J.K.J.J.J.J.K.m.= O 4 t                           ",
"                      p u A Z f.h.d.z.~.o.X.;.O.~.B.K.J.J.J.J.J.J.e.0.u i                           ",
"                      7 e h.M.g.h.s.x.{ }  .;.| <.T.L.P.J.J.K.J.K.K.J.r 7                           ",
"                          S Z f.h.d.x.X.;.;. .>.,.S.L.J.J.n.b.n.b.q.0.P                             ",
"                          ; 9 f.v.s.x.X. .;.;.>.<.T.L.I.K.g.h.g.f.; O                               ",
"                        ^ p u A Z Z F ( ( ( ( [ ..r.q.e.w.Z Z Z S u p                               ",
"                        E p 5 - # # * , > > > : > @ @ @ @ @ # # - , ,                               ",
"                      I G t 5 t t t t h h h h h h p i V V V b e p ) ) G                             ",
"                      5 5 9 t t a a 5 . . < 1 1 1 i i . . . . a k 4.4.g q                           ",
"                      p 9 t 7 7 0 v H oX+X' ` ` ` n H oX+X+XXXi k %.%.k u                           ",
"                      t 4 3 5 q t z T 5X6X6.=.5.4.x T 5X6X6X5XG 0 4.4.g 4                           ",
"                          J M 7 y ] O.4X3X@X2.2.2.o.O.4X3X3X4Xb 9 ) ) R                             ",
"                            K 5 h  X%X].].|.|.|.}.%X%X].}.].[.i 4 , ,                               ",
"                          E M q i {.}.|.|.`._._._._._.}.|.%X[.i q H                                 ",
"                          ; O O d ].$X}.}.#.@.#.@.@.#.}.}.|.].0 *                                   ",
"                        K Z Z 9.q.R..X X$X_._._._.`.].}.}.}.{.F C K                                 ",
"                      # 3 f.v.K.K.u.p. X$X$X$X$X X X|.|. X$X Xc.d.8 +                               ",
"                    P S Z z.n.J.J.n.B.W..X.X.X#X2.2.2.2.#X/.W.B.k.0.D M                             ",
"                  + 3 f.b.J.J.J.J.J.J.u.y.G.P.&.*.&.&.*.4.f.u.J.K.k.f.3 O                           ",
"                J S Z f.z.J.J.J.J.J.J.B.A.B.A.R.'.*X*X'.R.c.h.n.n.g.f.8.S J                         ",
"              9 r f.v.g.g.J.J.J.J.J.J.G.G.u.u.G.L.2X2XL.G.h.f.f.h.f.f.k.f.u 7                       ",
"              t u f.v.b.b.J.m.b.b.b.B.^.^.).~.B.B.oXoXA.N.N.n.n.n.h.f.h.f.u t                       ",
"              t e f.v.J.J.K.J.v.z.p.x.{ } | :.x.d.u.y.i.i.H.H.K.P.k.k.f.f.r y                       ",
"              y M j.h.P.P.q.q.f.z.p.x.1.:.>.,.A.M.c.c.D.D.Q.!.I.n.Z Z j.j.M k                       ",
"            Z.o : y.u.J.n.; ; f.v.s.x.>.| | >.S.L.g.c.(.oXXXXXY.m.9 = y.y.: o                       ",
"          P L +.$.OXoXT.B.N w C Z d.c./.(.(./.I.J.h.z.!.Q.Q.F.e.8.r i '. X$.+.U                     ",
"          4 v >X1X,X:XH.a.u 5 # 7 f.v.G.G.G.G.J.J.h.g.H.H.H.l.8 @ 4 v >X1X1X-Xv 4                   ",
"        / u b <X:X7.*X+XoXM 5 t u A Z r.r.N.N.n.b.h.h.B.N.N.h.N e 5 j 7.=X:X-Xv e                   ",
"          q b -X:X5.5.,X:Xv 4 9 9 - # & y f.k.h.h.i.i.i.i.k.f.u 7 4 k %.5.:X-Xv q                   ",
"          q h >X:X' ` $.+.t 5 9 9 t t i M D 0.D r.D.D.D.D.0.S u 9     ) ' ;X-Xv t                   ",
"          5 h :X:X2 o X X 5 t 7 9 t 9 i y % % % s (.XXXX(.s % 7 t     > 2 :X:Xh q                   ",
"              $.$.        t 9 9 9 t t i V w.t.t.t.F.Q.Q.F.t.w.u t       G +.+.R                     ",
"              o o         t 7 t 9 - - % y m.K.K.K.H.H.H.H.K.J.r 9       ~ o o                       ",
"                            M 9 e C D r.t.P.m.e.q.e.e.N.N.P.b.r 9                                   ",
"                              t r g.l.L.U.K.m.= O @ ; d.l.L.J.B 9                                   ",
"                              p t Q ! C.C.e.w.K J u u Q ! C.V.t t                                   ",
"                              t 7 f f c c O @ ^ ^ t 3 f f c m 7 t                                   ",
"                                U j j l G U E       U j j l n                                       ",
"                                  e 4 4 e             q 6 6 e                                       ",
"                                                                                                    ",
"                                                                                                    "
};
