/* XPM */
static char *e06c668bd0b94d80c369c16f25788969x0QbUMYkiQs4r75f[] = {
/* columns rows colors chars-per-pixel */
"50 50 137 2 ",
"   c None",
".  c #010102",
"X  c #0D0C0C",
"o  c #100F0E",
"O  c #12100F",
"+  c #151312",
"@  c #191616",
"#  c #1B1917",
"$  c #1E1A1A",
"%  c #221D1D",
"&  c #24201F",
"*  c #262221",
"=  c #2A2524",
"-  c #2D2827",
";  c #2E2928",
":  c #332D2C",
">  c #36302F",
",  c #373130",
"<  c #3B3433",
"1  c #3F3837",
"2  c #403937",
"3  c #443C3B",
"4  c #483F3E",
"5  c #48403F",
"6  c #4D4442",
"7  c #504745",
"8  c #514946",
"9  c #514847",
"0  c #514846",
"q  c #524846",
"w  c #524946",
"e  c #524847",
"r  c #524947",
"t  c #534A47",
"y  c #524845",
"u  c #524847",
"i  c #534948",
"p  c #534A48",
"a  c #534A49",
"s  c #554A48",
"d  c #544A49",
"f  c #554A49",
"g  c #544B49",
"h  c #554B49",
"j  c #554B4A",
"k  c #564B4A",
"l  c #554C49",
"z  c #554C4A",
"x  c #564C4A",
"c  c #564C4B",
"v  c #574D4B",
"b  c #574D4C",
"n  c #554B49",
"m  c #584E4C",
"M  c #594E4C",
"N  c #584F4C",
"B  c #594E4D",
"V  c #594F4D",
"C  c #5A4F4C",
"Z  c #5A4F4D",
"A  c #594F4D",
"S  c #59504D",
"D  c #5B504D",
"F  c #5A504E",
"G  c #5B504E",
"H  c #5B504F",
"J  c #5B514F",
"K  c #5C514F",
"L  c #5B514E",
"P  c #5C5150",
"I  c #5C5250",
"U  c #5D5250",
"Y  c #5D5351",
"T  c #5E5351",
"R  c #5F5452",
"E  c #5F5453",
"W  c #5F5553",
"Q  c #5E5351",
"!  c #605553",
"~  c #605554",
"^  c #615654",
"/  c #625755",
"(  c #625654",
")  c #635855",
"_  c #635856",
"`  c #645957",
"'  c #655957",
"]  c #635856",
"[  c #655958",
"{  c #655A58",
"}  c #665A58",
"|  c #665B59",
" . c #675B59",
".. c #665B59",
"X. c #685C5A",
"o. c #695D5A",
"O. c #6A5D5B",
"+. c #6B5E5B",
"@. c #6A5E5C",
"#. c #6B5E5C",
"$. c #6B5F5C",
"%. c #6C5F5D",
"&. c #695D5A",
"*. c #6C605E",
"=. c #6D605E",
"-. c #6E615F",
";. c #6F625F",
":. c #6D615F",
">. c #70635F",
",. c #6E6360",
"<. c #6F6361",
"1. c #6F6461",
"2. c #6F6360",
"3. c #706461",
"4. c #716461",
"5. c #716462",
"6. c #726562",
"7. c #736562",
"8. c #726563",
"9. c #736663",
"0. c #726664",
"q. c #736664",
"w. c #736764",
"e. c #746764",
"r. c #726563",
"t. c #766865",
"y. c #766966",
"u. c #796D6B",
"i. c #7A6D6B",
"p. c #7C6F6D",
"a. c #7D6F6D",
"s. c #7A6D6B",
"d. c #807270",
"f. c #817371",
"g. c #827472",
"h. c #867976",
"j. c #8A7B7A",
/* pixels */
"    > 5 6 6 6 , = = = ; & X X X O % # # & & % # & * % % % $ & & % % % % % * 2 , % = = * % * * = =   ",
"    R *.X.} q.j 1 6 1 4 = % # % @ 1 4 6 4 5 j b 7 4 5 6 5 i 5 3 2 2 3 , % @ 4 / - 2 , : : : : : ,   ",
"    U @._ ' 8.F < 2 4 2 = = $ : , 2 : % > 4 < = 2 : @ & & 5 5 @ + 2 : * , % 7 +.= 1 , > : = : > :   ",
"    U | ^ _ <.m > 3 4 2 = $ # $ @ : 4 3 6 % 3 , = c 4 4 : @ 3 7 2 < % 5 * = 7 &.- , : , 1 < < , :   ",
"    R } ^ / *.m < 2 1 3 = % % % . X 5 c j X 2 b 6 7 4 > 3 - 5 - s 2 : v X @ 8 *.: 3 > , 2 2 > : ,   ",
"    R } R ^ %.x , 1 < 2 = # @ - , 1 2 $ 1 2 @ @ % $ 2 < - < = . : 5 & : 1 = F t.: 4 6 2 4 1 > , 2   ",
"    W @.} U *.6 1 4 2 , = @ # * : 2 2 3 2 i c 7 4 3 6 m j 3 > : % 2 v 6 2 * x a.: , 2 1 1 1 3 1 <   ",
"    b } } / } U j F m 6 ; O + + % , 5 3 5 i 6 7 6 6 i 6 6 6 7 4 2 2 6 7 2 3 8.g.8 6 5 4 2 4 4 3 2   ",
"                                      - 1                                       = < < : > , ; ; =   ",
"                          d.6 8 8 x p 6 *.x F m F Z F U P m K U U U U U F m x m 8 6 1 = : ; : - %   ",
"                                      5 8.                                      4 c 3 = , , , , =   ",
"                                      5 8.                                      . b 6 ; < , , < ;   ",
"                        8.u.5 6 6 8 6 4 X.7 s p 8 j p j j p j j j j j j j j j j 6 8 4 ; 1 , : : =   ",
"                                      6 7.                                      6 x 2 : < , , : =   ",
"                                      5 8.                                      # j 4 : < < , > =   ",
"                                      4 <.                                      % p 4 ; < , , : ;   ",
"                        q.a.6 6 6 x 8 4 X.j v v v m m m m m m m m F m F m F m F x 8 4 ; , < , : =   ",
"                                      4 t.                                      < F 6 : , , > , ;   ",
"                                      4 7.                                      X b 5 : , , , < =   ",
"                                      5 8.                                      + U 6 > < ; : , ;   ",
"                        1.u.5 6 6 6 6 4 X.6 8 8 8 p p p j 8 j j j j j j j j j x 6 8 6 , : = = > *   ",
"                                      4 e.                                      4 / m - * 6 : ; ;   ",
"                                      6 8.                                      X / 8 > p 1 % : -   ",
"                                      5 8.                                      + ' 7 7 1 @ ; > *   ",
"                          y.4 5 4 6 4 4 X.4 6 6 6 6 7 6 6 6 7 6 6 7 7 6 7 6 7 7 4 m 6 X 6 4 # : =   ",
"                                      5 8.                                      p / j = 6 6 # - =   ",
"                                      5 8.                                      X U 4 6 : @ ; < =   ",
"                                      5 e.                                      # W 6 : 6 , % : -   ",
"                          8.2 2 2 4 < 5 X.< 4 3 4 4 4 4 4 3 4 4 5 5 5 6 6 5 5 5 < 8 6 = = 3 ; = =   ",
"                          h.x F P _ / 5 3.} } } } } } &.&.&.&.X.X.X.X.X.| X.| @.x x 4 = , : = : *   ",
"                                      4 q.                                      X F 6 = < , , < :   ",
"                                      4 t.                                      @ x 6 : , , , , =   ",
"                                      4 X.                                      - j 6 : , , , < -   ",
"                          g.p m x U F 4 *.^ ^ ^ / ^ ^ / ^ / _ ^ ' ^ ( _ ( / _ _ m s 2 : , , , : =   ",
"                                      4 7.                                      * m 4 ; < < , : ;   ",
"                                      3 8.                                      # v 4 : 1 , , : =   ",
"                        3.s.6 6 6 6 6 3 X.7 8 j p p j s j 8 p j j j j j j s x j 8 6 4 ; < , , : =   ",
"                                      4 7.                                      5 S 3 ; < < : : =   ",
"                                      3 3.                                      . m 5 - < , , < :   ",
"                          *.< 1 1 2 , 3 ^   2 2 2 3 3 2 3 2 2 4 3 3 3 4 3 3 4 3 , 7 3 - , , , > *   ",
"                          j.b U U } / 4 } X.| X.X.X.X.+.+.X.X.@.X.%.X.+.X.X.X.X.F 8 2 ; , : , : *   ",
"                                      : 2                                       X : = % = % # $ #   ",
"    6 U R W _ 6 , < > 1 : # + o O : > : , < < < < 2 < < < > , 1 , , : : = * 6 7 * : : = = = : - :   ",
"    / *.| } e.m 3 5 3 5 = % % = = 2 2 4 2 6 b b 7 2 2 4 4 v 6 : > 3 3 : = # 5 | = 2 , : ; : : : >   ",
"    K X./ _ 3.Z > 2 4 3 * % # = : 2 1 @ 2 2 = . : 2 % % o , 4 : % 2 % : < * 7 *.= , , < > ; , , :   ",
"    R } / _ 3.k > 3 3 2 = % % % . % 4 j q . 7 j , v 6 6 3 + 3 6 4 , : 6 X * 6 | : < ; : 2 1 < , >   ",
"    R } ~ / -.m < 2 < 3 = % % % + % 6 6 s % * 5 4 2 3 & : < 4 + 7 4 * q * + b q., 4 1 < 3 1 : : ,   ",
"    R } ~ ! #.i < 2 < 2 = @ @ ; 2 1 : # : 4 : % # @ 2 5 1 : X . o 3 , = 1 ; b y.= 2 4 3 3 1 < < 1   ",
"    / *.X./ *.p 4 6 2 1 = @ @ $ % 2 6 6 6 c U m p j m m m 7 6 3 > 3 Z C 3 = ! d.2 2 2 1 1 , 4 2 <   ",
"    2 x j 8 7 8 7 x j 5 * X + + # = : : 1 < , , > > < > , , < , ; : : : : 4 X.>.7 6 6 4 3 4 4 2 1   "
};
