/* XPM */
static char *_00b90b6a49140c4cb620c46d9293d95esHmXdOrCNVKZYvv[] = {
/* columns rows colors chars-per-pixel */
"50 50 134 2 ",
"   c None",
".  c #010102",
"X  c #0D0C0C",
"o  c #100F0E",
"O  c #12100F",
"+  c #151312",
"@  c #191616",
"#  c #1B1917",
"$  c #1E1A1A",
"%  c #221D1D",
"&  c #24201F",
"*  c #262221",
"=  c #2A2524",
"-  c #2D2827",
";  c #2E2928",
":  c #332D2C",
">  c #36302F",
",  c #373130",
"<  c #3B3433",
"1  c #3F3837",
"2  c #403937",
"3  c #443C3B",
"4  c #483F3E",
"5  c #48403F",
"6  c #4C4341",
"7  c #4C4342",
"8  c #4C4442",
"9  c #4D4442",
"0  c #4D4443",
"q  c #4E4443",
"w  c #4E4543",
"e  c #4E4643",
"r  c #4E4544",
"t  c #4F4544",
"y  c #4E4644",
"u  c #4F4644",
"i  c #4F4645",
"p  c #4C4342",
"a  c #504645",
"s  c #504745",
"d  c #514745",
"f  c #514746",
"g  c #504745",
"h  c #524845",
"j  c #514846",
"k  c #524846",
"l  c #524847",
"z  c #524947",
"x  c #534947",
"c  c #524947",
"v  c #524948",
"b  c #534948",
"n  c #534A48",
"m  c #544A48",
"M  c #544A49",
"N  c #554A49",
"B  c #544B49",
"V  c #554B49",
"C  c #554B4A",
"Z  c #564B4A",
"A  c #554C49",
"S  c #554C4A",
"D  c #564C4A",
"F  c #574D4B",
"G  c #574D4C",
"H  c #554C4A",
"J  c #584E4C",
"K  c #594E4C",
"L  c #584F4C",
"P  c #594F4C",
"I  c #584E4D",
"U  c #594E4D",
"Y  c #594F4D",
"T  c #5A4F4C",
"R  c #5A4F4D",
"E  c #594F4D",
"W  c #59504D",
"Q  c #5B504D",
"!  c #5A504E",
"~  c #5B504E",
"^  c #5B504F",
"/  c #5B514F",
"(  c #5C514F",
")  c #5B504E",
"_  c #5C5150",
"`  c #5C5250",
"'  c #5D5250",
"]  c #5E5351",
"[  c #5F5552",
"{  c #5E5352",
"}  c #615554",
"|  c #615654",
" . c #615754",
".. c #635754",
"X. c #625655",
"o. c #625755",
"O. c #615654",
"+. c #625855",
"@. c #645956",
"#. c #635856",
"$. c #665B59",
"%. c #675B59",
"&. c #675B5A",
"*. c #665B58",
"=. c #685B59",
"-. c #685B5A",
";. c #695B5A",
":. c #685C59",
">. c #695C5A",
",. c #695D5A",
"<. c #695D5B",
"1. c #6A5D5A",
"2. c #6A5E5B",
"3. c #6A5D5C",
"4. c #6A5E5C",
"5. c #6B5E5C",
"6. c #6A5D5B",
"7. c #6D605E",
"8. c #6D615F",
"9. c #70635F",
"0. c #6F6361",
"q. c #6F6360",
"w. c #716462",
"e. c #726562",
"r. c #726563",
"t. c #766865",
"y. c #776966",
"u. c #766967",
"i. c #7D6F6D",
"p. c #7A6E6C",
"a. c #817371",
"s. c #827471",
"d. c #867976",
"f. c #8A7B7A",
/* pixels */
"                                                                                                    ",
"= , : > > 2 < 2 = % = ; - = = - - - = ; * - ; * = - = = = = ; = - = - = = - ; * * $ : > : : < 1 < 1 ",
"* : : , : , 1 3 ; ; > < : : : : : , , < , - > , : = < : = : , < , > : > : > < > : $ - : , , : < 3 3 ",
"* > > < > > 3 5 ; : , > : > , , , , , : * > $ - $ $ ; % ; = , , , , > > > : > > > # : : , < : < 3 3 ",
"& : ; , 3 < < 3 : : , , < < , , < , , ; * t 1 @ 4 6 @ , 3 : , , > , < < , , > , : * ; ; ; 1 1 1 1 3 ",
"% : : 1 3 3 2 3 > > , < < < < < , , , < , * v 1 6 t : 6 - > , , > < < < < 1 < > , * * : > 3 3 3 < 3 ",
"& : > > , 3 < 6 : = ; ; : ; : ; : : > : , - , s X = 6 ; = - ; : ; : - : : : - - ; % = ; , : 1 3 1 5 ",
"= , , : , 5 1 5 < < 3 5 3 3 4 3 3 6 6 t 8 G v s f v 6 6 6 3 6 6 6 3 5 3 3 3 5 3 3 * ; < , ; 1 3 1 6 ",
"= 3 < , 3 3 < 6 < 6 G Y h D G M h W Y W h | | @.I o.` [ v D ` Y M M Y M a Y W a h ; : 3 < , 3 3 1 6 ",
"$ - - - : : : M - h 3 . a w $ % G < X O t 5 X + 3 v o # < D X @ - Y * $ h 4 . < Y X * - - : > = 1 h ",
"< #.2.2.7.t.i.s.  D     M       Y       M       a       3 2.      #.    M     3 2.  h &.2.&.e.t.i.0.",
"3 3 w w M Y D e.  D     G       Y       D       t       5 2.      ..    M     3 ;.  5 5 h w D M [ 4.",
"* @ & = @ = = 3   W     M       Y       D       t       6 2.      ..    D     3 2.  * @ * = + : = 6 ",
"% % , * X < < 3   W     G       Y       M       t       3 4.      ..    M     3 2.  = = , X & 2 3 : ",
"% , = 4 M : t t   '     M       Y       D       t       3 2.      ..    D     3 2.  : : : a a - Y : ",
"% 3 - * : * Y 6   '     M       Y       D       s       6 2.      @.    M     3 2.  : 3 $ : = , ` : ",
"$ 3 2 , 2 4 2 2   W     D       Y       M       t       5 2.      @.    M     3 4.  : 3 < , 5 3 3 ; ",
"% 2 + 3 M : % 2   '     D       Y       D       t       5 2.      O.    D     3 4.  , > $ 6 a o , : ",
"% 3 + a - . : 4   '     M       Y       M       s       3 2.      #.    M     3 5.  2 > ; w + . 3 : ",
"% 5 5 3 6 * > w   '     D       Y       D       w       5 ;.      |     m     3 2.  , 6 5 3 5 X 6 < ",
"% a 6 + - < 3 w   (     v       Y       h       w       3 &.      |     M     2 2.  : Y , + , , a , ",
"% 6 * : 3 ; D w   W     M       Y       v       w       5 ;.      @.    M     2 2.  < 4 o 3 , < F , ",
"% 6 % 4 , < Y w   '     D       D       M       w       3 ;.      |     m     3 2.  < 3 % t * 6 ( , ",
"% 5 @ 4 3 2 t v   W     M       Y       v       w       5 &.      #.    v     3 2.  < 3 $ 6 3 < Y < ",
"* 3 : M a $ 3 q   W     M       Y       M       w       3 &.      |     v     3 5.  < 2 2 Y 3 + m : ",
"* a 3 - 6 % 3 6   W     M       G       h       w       5 &.      |     M     2 ;.  < a : , 3 % M , ",
"$ Y = , Y @ a a   Y     M       D       v       6       3 :.      O.    h     2 2.  < F . M 5 $ W , ",
"% M , 3 2 @ G a   Y     h       G       h       w       3 &.      O.    v     3 2.  < Y * a = : ' , ",
"& 6 3 % X 3 a a   D     a       M       w       3       < @.      O.    t       2.  < 6 3 . * 3 Y < ",
"* 3 > t v < 3 6 < 7.t.e.4.e.r.0.5.t.e.e.2.r.e.e.4.e.e.t.2.9.t.t.2.7.r.e.2.e.w.[ &.2 > 2 < v M : t < ",
"$ 6 & 3 M % 3 3 ; w 5 5 5 5 6 3 3 4 5 5 5 5 6 5 3 6 5 5 5 5 3 5 5 4 3 3 3 3 3 3 3 : : 3 # M 5 $ t : ",
"$ 3 > 3 6 < 3 3   v     w       h       6       3       < O.      W     w     , #.  , 3 < 3 6 : 6 : ",
"% < 3 : o < 2 ,   Y     h       D       h       6       3 |       '     t     3 #.  : 1 1 & & 1 < - ",
"O @ , + . , : %   a     6       t       6       3       3 W       G     6     1 `   O = > . + 1 * $ ",
"X % : $ % - * +   h     t       t       7       6       3 W       G     6     1 '   O = = $ % : $ + ",
"X # % # % # # +   w     6       t       6       3       2 D       h     5     < G   + % $ $ $ @ @ o ",
"X % * % % $ + O   s.    p.      i.      p.      p.      e.d.      s.    p.    0.f.  $ & & $ % # @ X ",
"% - * - = - - -         0.      r.      0.                              e.          - = = = = = - * ",
"- 4 3 2 3 3 , 6                                                                     1 4 2 2 3 2 < 6 ",
"* 3 3 3 < , 2 Y                                                                     > 3 5 3 < < 3 D ",
"= 3 3 3 1 1 5 W                                                                     < 4 1 3 1 3 6 D ",
"= 3 < : < < < v                                                                     , 3 , , < , 3 a ",
", G Y Y Y G t `                                                                     6 G Y M ! l v a ",
"6 r.e.0.0.5.4.&.                                                                    o.u.w.0.0.4.0.h ",
"t &.@.| | | [ [                                                                     [ &.&.| #.[ [ v ",
"6 &.@.| | [ &.&.                                                                    [ &.O.| | | 4.M ",
"6 5.4.&.&.#.2.&.                                                                    ' 5.<.&.&.@.7.v ",
": [ ' ' | ' [ D                                                                     q [ ` [ ' ' | 3 ",
"                                                                                                    ",
"                                                                                                    "
};
