/* XPM */
static char *_cd8fbc127c447e8d40595da75bdf190Yn6QI0kH9z6aedkc[] = {
/* columns rows colors chars-per-pixel */
"50 50 130 2 ",
"   c None",
".  c #010102",
"X  c #0D0C0C",
"o  c #100F0E",
"O  c #12100F",
"+  c #151312",
"@  c #191616",
"#  c #1B1917",
"$  c #1E1A1A",
"%  c #221D1D",
"&  c #24201F",
"*  c #262221",
"=  c #2A2524",
"-  c #2D2827",
";  c #2E2928",
":  c #332D2C",
">  c #36302F",
",  c #373130",
"<  c #3B3433",
"1  c #3F3837",
"2  c #403937",
"3  c #443C3B",
"4  c #483F3E",
"5  c #48403F",
"6  c #4D4442",
"7  c #504745",
"8  c #524846",
"9  c #554B49",
"0  c #554C49",
"q  c #564C4A",
"w  c #564D4A",
"e  c #564C4B",
"r  c #574C4B",
"t  c #564D4B",
"y  c #574D4B",
"u  c #574D4C",
"i  c #554B49",
"p  c #584E4C",
"a  c #594F4C",
"s  c #594F4D",
"d  c #5A4F4D",
"f  c #594F4D",
"g  c #5B504D",
"h  c #5A504E",
"j  c #5B514F",
"k  c #5C514F",
"l  c #5B504E",
"z  c #5C5150",
"x  c #5C5250",
"c  c #5C5251",
"v  c #5D5251",
"b  c #5D5351",
"n  c #5E5351",
"m  c #5F5452",
"M  c #5F5453",
"N  c #5F5553",
"B  c #5E5351",
"V  c #605453",
"C  c #605553",
"Z  c #615553",
"A  c #605653",
"S  c #605554",
"D  c #615554",
"F  c #615654",
"G  c #615754",
"H  c #625754",
"J  c #635754",
"K  c #625655",
"L  c #625755",
"P  c #635755",
"I  c #615654",
"U  c #635854",
"Y  c #625855",
"T  c #625856",
"R  c #635856",
"E  c #645956",
"W  c #645956",
"Q  c #645958",
"!  c #655A58",
"~  c #665A58",
"^  c #665B58",
"/  c #675B58",
"(  c #665B59",
")  c #675B5A",
"_  c #675C58",
"`  c #675C59",
"'  c #675C5A",
"]  c #665A58",
"[  c #685B59",
"{  c #685B5A",
"}  c #695B5A",
"|  c #685C59",
" . c #695C5A",
".. c #695D5A",
"X. c #685D5B",
"o. c #695D5B",
"O. c #6A5D5A",
"+. c #6A5E5B",
"@. c #6A5D5C",
"#. c #6A5E5C",
"$. c #6B5E5C",
"%. c #6A5E5B",
"&. c #6D605E",
"*. c #6D615F",
"=. c #6E615F",
"-. c #6D625F",
";. c #6E615F",
":. c #70635F",
">. c #6F6260",
",. c #6F6360",
"<. c #6F6361",
"1. c #6F6361",
"2. c #706361",
"3. c #706362",
"4. c #716462",
"5. c #736563",
"6. c #756763",
"7. c #746664",
"8. c #746764",
"9. c #726563",
"0. c #756866",
"q. c #776966",
"w. c #766966",
"e. c #7A6D6B",
"r. c #7B6E6C",
"t. c #817371",
"y. c #837572",
"u. c #817371",
"i. c #867976",
"p. c #8A7B7A",
/* pixels */
"  1 3 3 3 3 5 5 6 7 1.+.3 > : : ; ; > < < , > < > > , , < < : : = $ + + X = 5 r r 7 8 8 8 9 9 3     ",
"  < 3 3 1 1 1 1 1 1 t.b = 3 h k 3 , 3 5 7 r d s 9 8 d d r 7 6 6 2 & # @ @ = < 3 6 3 8 &.N +.&.J     ",
"  1 < < < 3 3 3 3 = q.y : 1 = > 3 X . X > < 4 1 @ # % : 3 : # > 1 2 : @ @ = 2 < 3 < 8 @.M M ) b     ",
"  < : : 1 3 1 1 4 > 4.q + & 8 = 4 7 + 5 < > * 3 3 3 5 = & 9 4 6 % + % $ % = 3 < < < s &.J M ) b     ",
"  : > < 1 3 : ; < ; E 7 = X 6 : , 6 7 3 o 3 7 6 r < 9 6 . 9 9 3 % . $ % # = 3 3 3 , e >.P J ) b     ",
"  : > < ; : < , < = +.7 & < : % 1 # ; 4 < o # % 2 : . = 3 < # < 2 : - # & = 3 3 2 , h 3.Q J ) b     ",
"  > : : ; : : , 3 - [ 4 @ = : 3 3 : > 6 9 4 4 2 1 7 r r 5 2 4 3 2 = - % & = 3 3 5 3 r 0.) ) $.J     ",
"  : = : = = = ; : = 8 5 * = : : : < 2 , > < < < 1 < < < < > : , : O o + # - 1 > < , 6 J b M b 6     ",
"  # % # & * % = : X                                       3 ;                                       ",
"  * : , > , ; 1 8 s +.) +.+.+.+.@.@.@.+.+.+.+.+.+.[ +.E +.) 3 U Q b b u p.                          ",
"  * : , , > = 3 7 < 3 3 3 3 3 3 3 3 3 3 2 3 3 3 3 3 2 3   C 3 < 3 < 1 < ,.                          ",
"  ; < , , < ; 6 s .                                       ,.3                                       ",
"  - : : < 1 ; 3 s 3                                       6.3                                       ",
"  = : : , < ; 3 6 8 9 9 9 9 q 9 q 9 q 8 9 9 8 9 8 9 8 8 6 +.3 6 6 6 6 6 e.2.                        ",
"  = : , < < ; 5 q #                                       ,.3                                       ",
"  ; : , < < ; 5 s =                                       0.3                                       ",
"  = > , , < ; 3 9 s J J J J J J J J J J J J J J J N J N M &.4 h b q u 8 y.                          ",
"  ; , , > > : 6 8 ;                                       +.3                                       ",
"  = < , < , : 5 s @                                       6.5                                       ",
"  ; , > > < ; 6 b X                                       4.5                                       ",
"  = : = : > ; 3 9 q @.+.@.+.+.` +.+.+.) ) [ [ [ ) ` E +.) :.5 C U z z i i.                          ",
"  = = ; 3 = = 5 8 < 5 3 3 6 3 6 6 3 6 3 3 3 4 4 3 5 3 3 < +.4 1 3 3 3 1 9.                          ",
"  ; ; % , 6 : 6 M #                                       8.4                                       ",
"  = < ; @ : 6 5 h O                                       4.5                                       ",
"  - ; # 5 6 ; 8 J 8                                       4.5                                       ",
"  = : $ 6 5 X 7 s 3 7 6 7 7 7 6 7 6 8 6 6 7 6 6 7 6 6 6 3 +.4 3 6 5 3 3 q.                          ",
"  % , ; @ 1 8 7 E +                                       4.5                                       ",
"  - : % 1 8 > 9 J X                                       2.6                                       ",
"  - - : 6 = - u J 5                                       8.5                                       ",
"  = : = * : , 6 8 6 9 9 9 9 9 q q q 9 8 8 8 q 8 q 8 8 8 6 +.4 6 6 6 6 5 e.1.                        ",
"  ; < > ; , , 6 h O                                       4.5                                       ",
"  = , , , , , 6 s X                                       8.3                                       ",
"  ; < , : , : 6 h <                                       8.4                                       ",
"  = : > , < ; 3 8 q s s s s s s s s s s u s u s s q s q 9 +.4 8 9 6 7 6 r.9.                        ",
"  ; : , < < : 3 8 %                                       1.4                                       ",
"  = : > , 1 ; 3 u $                                       4.5                                       ",
"  = : , < < : 3 s 6                                       4.5                                       ",
"  - : : < < : 3 8 6 e 9 9 e e 9 q q 9 9 8 9 9 9 9 8 9 8 7 @.5 6 8 6 6 5 e.4.                        ",
"  ; < , , < ; 3 s .                                       4.5                                       ",
"  = : , , , ; 3 u 3                                       8.5                                       ",
"  % = : : : = 1 6 7 s 9 y k b k k k k k d k h k z h s h e ,.6 8 q 7 8 6 t.                          ",
"  = ; : : : : < 1 =                                       < ;                                       ",
"  3 3 4 4 3 3 5 6 7 t.4.3 3 7 5 3 2 4 7 6 6 6 9 6 6 7 6 8 6 3 4 < % + @ + - 6 e h 9 z ) M E ) 9     ",
"  < 1 3 1 1 1 2 < : r.r = 2 6 s 2 % : : 3 q s 6 3 3 6 e 8 2 3 3 1 : * @ @ = , 1 5 1 6 &.M ) &.M     ",
"  1 , > < 3 3 4 3 ; q.s = < > & 5 : . * < - < 2 # & @ + 2 1 # 2 < < ; @ # = 3 < 1 < q @.C M Q M     ",
"  > : > 3 2 , , 3 < $.8 + X y : 2 e - 6 - 3 < 5 7 6 s 2 X 9 e 5 X . # % & = 3 1 1 < s ,.U J E M     ",
"  : < < < 1 : : , ; [ 7 = & 5 & , 2 7 3 + : 3 3 9 = < 3 % 6 3 4 : + $ # $ = 1 3 3 : u 1.U U ` M     ",
"  : : : - : > , 1 - $.7 % : = : 1 + + 5 5 & & @ : 3 = < 6 : & : 2 < : % * = 3 3 3 1 h 9.Q U @.h     ",
"  < : > : : ; , 3 ; C 3 @ * > 3 3 2 3 5 8 6 6 6 3 7 s 9 5 3 6 3 1 + % # % = 4 3 3 2 9 6.) [ $.V     ",
"  * * = * & & = - # < 2 * % % % % % * % # % % % * % # % & * % # % O X X o % - = = = < 5 6 6 6 :     "
};
