/* XPM */
static char *e089a0f6c9e042d7d7dfa09c39c8f98bizOFAAqFvFcebgki[] = {
/* columns rows colors chars-per-pixel */
"50 50 86 1 ",
"  c #011317",
". c #0D2022",
"X c #1B2729",
"o c #1D2B2C",
"O c #202F31",
"+ c #233536",
"@ c #243738",
"# c #263A3B",
"$ c #283E3F",
"% c #293F40",
"& c #294142",
"* c #2E4748",
"= c #2F494A",
"- c #314D4E",
"; c #324F50",
": c #355253",
"> c #3B5657",
", c #375758",
"< c #385758",
"1 c #365C5E",
"2 c #3B5C5D",
"3 c #375F60",
"4 c #385F61",
"5 c #3E6263",
"6 c #406263",
"7 c #406768",
"8 c #456C6D",
"9 c #476F70",
"0 c #486F71",
"q c #497273",
"w c #4E7B7C",
"e c #507677",
"r c #507E7E",
"t c #4F8283",
"y c #568485",
"u c #5B8485",
"i c #568788",
"p c #5C8788",
"a c #5A8B8C",
"s c #5C8F90",
"d c #5E9394",
"f c #5E9798",
"g c #638C8C",
"h c #688E8E",
"j c #619697",
"k c #6C9696",
"l c #619798",
"z c #62999A",
"x c #649B9C",
"c c #659B9C",
"v c #649C9D",
"b c #6B9899",
"n c #719C9D",
"m c #729D9E",
"M c #729E9E",
"N c #739E9E",
"B c #66A0A0",
"V c #75A0A0",
"C c #74A1A1",
"Z c #77A6A6",
"A c #7DA6A6",
"S c #78A8A9",
"D c #7CACAD",
"F c #7CAEAE",
"G c #7DAFAF",
"H c #7CAFB0",
"J c #84B5B5",
"K c #87B6B6",
"L c #87B9B9",
"P c #89B8B8",
"I c #8BBABA",
"U c #8BBBBB",
"Y c #8CBCBC",
"T c #8FBFBF",
"R c #90BFBF",
"E c #90C0BF",
"W c #8FC0C0",
"Q c #8FC1C1",
"! c #92C2C2",
"~ c #93C2C2",
"^ c #93C4C3",
"/ c #93C4C4",
"( c #94C4C4",
") c #94C5C4",
"_ c #95C7C7",
"` c #97C8C8",
/* pixels */
">6qpyyyyyyyyyyyyyyyyyyyyyyyyyyyyyyyyyuyyyuyyyyypVA",
"69aBvffzzzzfzzfzzzfzllzfzzfzzzfzvvzfzfzfzfvfzzfBW`",
"68qwjHHFFFFHHHHDDHHHFFFHHHFHDHHHfdSHFFFGFFGFFFFSlg",
"6085k`/((((///(((((!(((((((((/(RBfLQ^^^^///^(/`Y92",
"6088uNNnMMMMNNNVNNSHSMnMNNmCMCHSiybCbCNNNNnnnnVkq8",
"608887755253544433tfw154444437dd855551515555875799",
"688075780uppuuuuyubVduyupuuuypfzuypuuuuuyyuw558088",
"60802+:7rP!YEREERRRRTTTRRRRRRPlzEEEEEEERWW/k :8808",
"60802+:7eJYPIIPIPYPPPYPPIIPPYKjzPRJEEJEPEJEh.;8988",
"68882+:8qlczzzzzczzzczzzzzzzzzjzzzlzzzzlzr96+-8888",
"68802+;8qdlljjjjzjjjzjjjzdzljjzjjjjjjjjjjr8>@;8988",
"60802+;7qjzlzjzzzjzjzjzjzzlljzjzllljjjzjlr92+-8980",
"60802+;8qjzjlllljjzjzjjzjjzjzzjzjjzjjzzjlr82+;9808",
"68882+;8qdzjllllzjjzjzzjzzjzjjjjzjjzzjjjzr82@-9888",
"68802+:8qjljlllljzjzjjzjjzjjjjzjjzzjjjjjzr82@-8988",
"60802+;7qjzjlllljjzjfzjzjjzjzzjzzjjzjzzjlr02+-8808",
"60802+;8qdllllllzjzjzjjzfjzjjzjjllllllljlr82+-9898",
"60802+;7qdzjlllljzzjjzzjjzjzzjjzllllllfjcw82@-8988",
"60802+;8qjljllllzjjzjjjzjzjjzjzjllllllljzr82+-8889",
"60802+;8qjcllllljzjjzjzjzjjzjjfzlllllllcvr82@-9988",
"60802+;8qyydzlllzjjzjzzjllllzlllllllllstyq82@-888q",
"68892+;8077azlllzjjzjjjzlllljllllllllzy58892+-9888",
"60802+;80wwdzjlljjzjzfjjllllllllllllllarwq95*<8888",
"60884+:7qjzlllllzjjzjzzjllllllllllllllllzr88998888",
"68802+;8qjjjjlllllllllllllllllllllllllljzr88688889",
"60892+;7qjjjllllllllllllllllllllllllllljlr82@;9988",
"60892+;8qjzjlllllllllllllllllllllllllllllr82+-8899",
"68802@:7qjzjllllllllllllllllllllllllllljlr82@-9888",
"60802O;7qjljllllflllllllllllllllllllllljcr82+-8898",
"60886%>8qdljllllllllllllllllllllllllllljlr82@-8988",
"68888888qfzjllllllllllllllllllflllllllljlr82@-8889",
"60888888qdzjlllllllllllllllllllllllllllfcr82+-9988",
"60802$<70jzllllllllllllllllllllllllllllllr82+-8889",
"68802O;8qdljllllllllllllllllllllllllllljlr82@-8989",
"69802+:7edljllllllllllllllllllllllllllljzr02@-8988",
"60802+;8qdljlllllllllllllllllllllllllllllr82+-8898",
"68892+:7eszjllllllllllllllllllllllllllllzr82@-9888",
"60892+;80jzjllllllllllllllvzllllllllllllzr82@-8998",
"60882+:7qdzlllljllllljlljiiallfllllflllfzr82+-8998",
"68802+:8edlllzzllllllllcd85rllllllllllllzr92+-8888",
"59891+:8qdlllzzzlzzlllllsq8rzzlflllllljjzr82@-8889",
"69892#*:18888888888888888,:288888888888896:-%-8889",
"69892+#+OoXXXXXXXXXoXXoXX+++oOXXoXXXXXooX++@+*0888",
"69886;:,<<<<<<<:<<<:<<:<,:,-&*,,<<<<<<:><::::28898",
"6989qq9q0qq00qqqqq9q9qqqq9q5@=9q9qq9qqq90qqqqqq888",
"686565556565666656565556557:#*66666656555555655688",
"6q:#%%$$$$$$$$%$$$$$$$$$$$%%%%%%$$$$$$$$$$$$$&$*89",
"68;#$$$$$$$$$$$$$$$$$$$$$$$%%$$%$$$$$$$$$$$$$&#&68",
"#*%%%%%&%&&%&%&&%&&%&&%&&%&%%%%&&$&&$&&$&&$&&&$&&&",
"##%%%%%%%%%%%%%%%%%%%%%%%%%%%%%%&$&$$&&$&$$&$$&$&$"
};
