/* XPM */
static char *c109c6b6948245c9d85da948ccb21208pA5K3cdZrM7B3TT2[] = {
/* columns rows colors chars-per-pixel */
"50 50 131 2 ",
"   c None",
".  c #010102",
"X  c #0D0C0C",
"o  c #100F0E",
"O  c #12100F",
"+  c #151312",
"@  c #191616",
"#  c #1B1917",
"$  c #1E1A1A",
"%  c #221D1D",
"&  c #24201F",
"*  c #262221",
"=  c #2A2524",
"-  c #2D2827",
";  c #2E2928",
":  c #332D2C",
">  c #36302F",
",  c #373130",
"<  c #3B3433",
"1  c #3F3837",
"2  c #403937",
"3  c #443C3B",
"4  c #483F3E",
"5  c #48403F",
"6  c #4D4442",
"7  c #504745",
"8  c #524846",
"9  c #554B49",
"0  c #594F4D",
"q  c #5B504D",
"w  c #5A504E",
"e  c #5B514F",
"r  c #5C514F",
"t  c #5B504F",
"y  c #5C5150",
"u  c #5C5250",
"i  c #5D5250",
"p  c #5C5251",
"a  c #5D5251",
"s  c #5D5351",
"d  c #5E5351",
"f  c #5F5452",
"g  c #5F5453",
"h  c #5F5553",
"j  c #5D5351",
"k  c #605453",
"l  c #605553",
"z  c #615553",
"x  c #605653",
"c  c #605554",
"v  c #615654",
"b  c #625754",
"n  c #625755",
"m  c #635755",
"M  c #625754",
"N  c #635854",
"B  c #635855",
"V  c #625856",
"C  c #635856",
"Z  c #645956",
"A  c #645957",
"S  c #655957",
"D  c #635956",
"F  c #645958",
"G  c #655958",
"H  c #655A58",
"J  c #665A58",
"K  c #665B58",
"L  c #675B58",
"P  c #665B59",
"I  c #675C58",
"U  c #675C59",
"Y  c #675C5A",
"T  c #675B5A",
"R  c #685C5A",
"E  c #695C5A",
"W  c #695D5A",
"Q  c #685D5B",
"!  c #695D5B",
"~  c #6A5D5B",
"^  c #6A5E5B",
"/  c #6B5E5B",
"(  c #6A5E5C",
")  c #6B5E5C",
"_  c #6B5F5C",
"`  c #6C5F5D",
"'  c #695D5A",
"]  c #6C605E",
"[  c #6D605E",
"{  c #6D615F",
"}  c #6E615F",
"|  c #6D625F",
" . c #6F625F",
".. c #6D605E",
"X. c #70635F",
"o. c #6F6260",
"O. c #6E6360",
"+. c #6F6360",
"@. c #6F6361",
"#. c #6F6461",
"$. c #6F6361",
"%. c #706361",
"&. c #706362",
"*. c #706461",
"=. c #716461",
"-. c #716462",
";. c #706562",
":. c #726562",
">. c #736562",
",. c #726563",
"<. c #736563",
"1. c #736663",
"2. c #756763",
"3. c #726664",
"4. c #736664",
"5. c #736764",
"6. c #746664",
"7. c #746764",
"8. c #726562",
"9. c #756866",
"0. c #766967",
"q. c #776966",
"w. c #796D6B",
"e. c #7A6D6B",
"r. c #7C6F6D",
"t. c #7D6F6D",
"y. c #807270",
"u. c #837572",
"i. c #817371",
"p. c #867976",
"a. c #8A7B7A",
/* pixels */
"                                                                                                    ",
"                                                                                                    ",
"3 v s s s u v 6                                                                     0 s u v u u l : ",
"8 [ H H H ! [ s                                                                     H ! H H ! ! ` 6 ",
"9 ! v v v v R l                                                                     H H g v v m R 6 ",
"8 v s B A A I s                                                                     v g v B v G H 6 ",
"8 +.` [ +.-.9.B                                                                     H +.` +.+.3.7.6 ",
"8 8 8 0 9 w 9 6                                                                     u 6 9 0 0 0 9 , ",
"8 3 , < , , 3 ,                                                                     9 1 < < > < 3 = ",
"9 6 3 1 3 2 5 <                                                                     0 5 1 2 3 3 3 = ",
"9 3 < < 3 4 3 :                                                                     9 2 < < 3 3 3 * ",
"5 < 2 3 2 2 4 2                                                                     6 , 3 3 2 3 3 ; ",
"= = = = = = = -           -.                              #.      3.      -.        ; = = = = = = * ",
"X @ @ % % & % $   a.[     w.    u.      p.-.      9.      w.      t.      w.    y.  + @ $ % $ * % o ",
"O @ @ % $ $ % +   0 1     5     8       9 2       3       5       6       6     6   + @ $ % $ $ $ X ",
"+ $ ; % $ = = o   u 1     6     0       w 3       5       6       6       6     8   + * = $ $ : % X ",
"$ & 3 + . : = O   p 1     6     9       u 3       3       6       6       6     8   % : , . @ , + O ",
"= 1 1 % & 2 2 :   B 3     8     u       m 3       6       8       9       8     9   , 1 1 X : 2 1 % ",
": 6 : 6 3 1 3 ,   B ,     6     w       l 1       3       6       8       6     8   4 3 1 5 3 , 4 $ ",
": 6 $ 5 9 @ 4 : : 3 3 3 3 3 3 3 5 5 3 5 5 5 5 5 6 3 5 6 6 3 6 3 4 5 3 5 5 5 5 5 6 ; 3 3 % 0 3 % 5 # ",
", 6 : 9 9 1 2 , 3 I l %.-.R -.7.[ R 2.7.X.R 9.-.-.R 2.-.-.R -.2.7./ +.2.-.R -.9.[ 1 6 1 1 9 6 > 4 * ",
"1 9 3 & . 2 6 ,   R       8     l       H <       3       6       9       8     9   8 8 1 X % 4 5 & ",
", u : = 6 = 0 ,   R 3     8     l       R 4       6       8       9       8     0   8 9 + 2 3 < 9 % ",
", 0 $ 5 8 . 0 <   R 2     8     l       I 3       6       8       0       9     0   6 8 @ 0 , = 0 $ ",
", 8 $ 4 , : 8 <   R 3     9     v       R 3       6       8       9       9     w   6 4 % 6 = 3 6 & ",
"> 9 @ 3 0 2 2 <   R 3     8     v       R 4       7       9       0       9     r   6 3 $ 8 9 : 3 * ",
"< 0 1 3 6 $ 3 ,   R 3     9     v       I 3       6       8       0       8     w   9 6 1 3 3 @ 5 % ",
", 0 5 & 8 % 4 <   R 3     8     B       T 6       6       9       0       9     r   6 0 < , 4 % 6 % ",
", 9 1 > 3 O 3 <   / 3     9     v       R 4       6       9       0       9     w   6 9 = 3 : * 6 % ",
", 8 > , o , 0 ,   R 2     8     B       H 3       6       8       0       9     r   6 3 1 ; @ 4 8 % ",
"< 6 X 4 3 4 5 <   R 3     9     v       R 5       6       8       0       9     r   8 : * 6 3 6 4 % ",
"> 3 . + 7 ; , <   R 3     9     B       R 5       8       9       0       9     r   5 : . = 6 + 3 * ",
"; , o 7 7 $ > ,   ` 3     9     N       R 5       8       9       0       9     u   2 % ; 9 2 + 2 % ",
"; 3 3 4 > < 2 >   ~ 4     9     m       R 5       6       9       0       9     u   3 2 4 2 , 1 3 $ ",
": r > = : # 4 ,   / 3     9     A       R 6       8       9       w       9     u   6 9 * : % : 4 % ",
": 0 - 7 7 : : :   / 3     9     v       R 5       6       9       0       9     u   8 6 > 9 4 * , % ",
": 3 1 % o , = *   R 3     9     B       R 5       6       9       0       9     r   2 3 2 X & , % % ",
"4 = : + * * # *   R 3     9     B       ] 5       8       9       0       9     0   3 * * # = & @ * ",
"/ k 9 0 8 8 4 5   R 4     9     v       I 5       6       9       0       9     9   >.9 0 9 7 7 3 3 ",
"%.y.q.%.T R L 8   / 3     9     B       R 5       8       9       w       9     0   y.t.q.` T T l 1 ",
"8 1 - , ; - - = X 0 , . 4 8 $ * p - + X 9 < # o 8 3 + X 5 6 + X , 9 $ % 6 6 . 3 8 = 9 : : : ; = - $ ",
"6 1 1 3 , , 3 : : 8 8 r 0 6 9 0 9 8 w p 9 8 s p B w F B v 7 w 0 r 8 9 0 0 8 0 0 6 2 6 , 3 3 , 1 3 = ",
"6 1 5 1 ; , < ; * 2 3 5 3 3 3 4 5 6 6 6 3 6 6 5 8 8 7 8 0 6 6 6 6 3 3 4 3 3 4 3 1 , 5 2 4 , : , , = ",
"5 < 3 < > < ; = % : = = ; : ; : ; ; ; - ; = : 5 = o 7 , - , : , : : = : : ; - : * : 4 1 3 , , > - & ",
"3 1 3 3 3 : ; = = , , < < 1 1 < < , , < , = 6 , 6 3 1 8 = : < , : 1 < 1 1 1 < , , : 3 1 3 2 1 : : % ",
"3 1 < 1 1 ; : = & : , > , , , , , , , , : 3 , + 6 6 + 1 6 * ; , : , , , , < : , : : 3 1 2 3 , = : * ",
"5 3 < : < , > ; $ : , > : , > > , , , , = ; * - $ $ ; * : = : , , , : , : : , , : : 4 3 , , < : , = ",
"3 3 , > , , : ; $ : > < > : : : > , < , : = ; < ; ; , : - > < , 1 : : : : : < , = = 3 2 , , , : : * ",
"< < 1 < > : > : $ * * ; - = = - = - = ; * = = = ; = * = : * ; = = = ; = = = : * % = 3 < 1 > : : , = ",
"                                                                                                    "
};
